<svg height="148pt" preserveAspectRatio="xMidYMid meet" viewBox="0 0 690 148" width="690pt" xmlns="http://www.w3.org/2000/svg"><g transform="matrix(.1 0 0 -.1 0 148)"><path d="m323 1445c-101-19-187-37-193-40-14-8-13-38 2-53 7-7 23-12 36-12 36 0 62-18 78-55 11-28 14-121 14-500v-465h60 60v462 461l123-199c67-109 183-298 256-419 74-121 147-239 163-262l29-43h99 100v575 575h-55-55v-372l-1-373-22 26c-12 15-123 185-247 378-176 274-229 350-245 350-11-1-102-16-202-34z"/><path d="m1498 1466c-153-56-284-223-324-416-19-90-14-272 11-365 53-203 196-347 374-376 237-39 431 91 516 346 22 63 28 106 33 202l5 122 47-42c26-23 112-80 191-127 152-89 223-149 231-193 8-43-7-106-32-132-13-14-39-30-58-36-50-17-230-5-319 20-40 12-75 21-78 21s-5-31-5-70v-69l38-11c20-6 82-18 137-26 265-42 496 36 570 193 38 79 38 197 2 277-43 94-99 139-340 272-94 52-166 119-168 156-4 68 15 114 52 133 36 19 168 19 274 0 44-8 84-15 88-15s7 28 5 63l-3 62-65 11c-36 7-126 12-201 13-158 1-233-16-311-71-58-41-85-76-108-134l-17-46-32 50c-44 69-121 138-189 170-50 24-71 27-172 29-77 2-127-1-152-11zm199-93c47-22 86-86 110-176 26-105 26-469 0-574-41-159-130-226-234-176-86 40-123 156-130 405-6 183 5 300 34 388 41 126 127 177 220 133z"/><path d="m3045 1455c-71-13-160-29-197-35-52-9-69-16-73-31-9-27 12-49 44-49 15 0 37-7 50-16 50-35 51-50 51-544v-460h140 140v510c0 563-2 544 61 481 35-36 33 7 33-546l1-440 137-3 138-3 2 273 3 273h195 195l3-273 2-273 138 3 137 3v535 535l25-3c14-1 34-12 45-23 19-19 20-35 23-534l3-515h355 355l-3 63-3 62-212 3-213 2v210 210h165 165v50 50l-162 2-163 3-3 193-2 192h149c141 0 151-1 176-22 17-15 28-38 33-68 6-37 12-46 31-48 13-2 28 2 32 10 5 7 9 64 9 126v112h-540-540v-245-245h-200-200v250c0 193-3 250-12 250-7 0-87-14-178-30-91-17-168-30-172-30-5 0-8 14-8 30 0 35 12 35-155 5z"/><path d="m5972 1448c-237-25-474-188-571-392-22-45-44-103-49-131-16-76-23-125-19-125 3 0 30 42 60 93 242 402 548 551 889 433 186-65 341-206 439-401 45-89 44-59-3 53-133 319-427 504-746 470z"/><path d="m5925 1299c-75-18-199-86-262-144-106-96-188-242-207-370-5-34-4-37 7-21 6 10 47 72 89 136 140 214 263 308 433 331 113 16 201 0 317-58 148-74 268-203 319-345 26-69 34-70 19-2-39 172-192 343-390 437-79 38-92 41-185 43-55 2-118-1-140-7z"/><path d="m5926 1159c-113-27-280-165-343-284-56-108-66-160-58-311 7-124 9-139 41-205 19-40 36-70 39-68 2 2-3 38-11 79-25 128-29 256-10 330 59 236 240 404 448 417 232 15 405-114 482-357 39-125 42-198 11-323-14-60-24-113-22-120s17 26 32 73c38 114 42 269 8 375-61 193-211 344-388 390-64 16-168 18-229 4z"/><path d="m6316 568c-3-7-7-26-10-41-4-16-17-32-31-39-34-15-31-41 6-72 33-28 86-35 95-12 3 7 23 19 45 26 21 7 39 16 39 19 0 4-16 15-35 25-32 17-33 20-17 32 15 12 15 15 2 24-8 5-21 8-27 5-7-2-13 2-13 10s-9 19-19 25c-25 13-31 13-35-2z"/><path d="m247 242c-22-24-22-95-1-116 18-19 45-21 62-4 20 20 13 32-8 13-39-35-72 13-53 78 10 37 40 48 60 21 7-10 13-13 13-8 0 15-22 34-40 34-9 0-24-8-33-18z"/><path d="m376 244c-23-22-21-96 2-117 25-23 48-21 66 5 47 66-15 166-68 112zm64-29c9-27 8-40-2-62-19-41-51-37-61 7-19 77 39 127 63 55z"/><path d="m512 188 1-73 6 60 6 60 16-36c9-20 20-45 23-57 4-12 14-22 22-22 11 0 14 15 12 73l-1 72-7-65c-6-71-4-72-43 23-25 58-37 46-35-35z"/><path d="m667 253c-4-3-7-17-7-30 0-17 10-28 35-40 21-10 35-24 35-35 0-24-27-34-51-19-11 6-19 7-19 2 0-14 37-23 60-16 14 4 20 15 20 34 0 21-8 31-35 44-37 17-46 43-19 54 8 3 20 1 27-6 17-17 31-13 17 4-13 15-51 20-63 8z"/><path d="m802 199c-2-69 7-89 43-89s45 20 43 89l-2 66-3-62c-4-68-22-95-51-76-12 7-19 30-23 74l-6 64z"/><path d="m958 254c-5-4-8-36-8-71v-63l48 2c42 1 43 2 10 5l-37 4-3 65c-2 36-6 62-10 58z"/><path d="m1090 251c23-6 26-13 31-71l6-65 1 63c2 55 5 64 25 72 17 7 9 9-33 8-38 0-47-2-30-7z"/><path d="m1218 190c2-38 7-70 12-70s10 32 12 70c2 57 0 70-12 70s-14-13-12-70z"/><path d="m1309 233c-1-16-2-47-3-70-1-24 2-43 6-43s8 28 8 63l1 62 26-62c35-87 53-84 51 10l-1 72-6-65-7-65-28 63c-31 67-45 78-47 35z"/><path d="m1467 242c-23-25-23-94 1-115 10-10 32-16 50-14 29 2 32 5 32 35 0 29-3 32-27 31-24-2-25-2-5-6 24-5 29-22 10-41-33-33-74 16-64 73 8 41 29 54 58 36 16-10 19-10 16 1-7 21-52 21-71 0z"/><path d="m1687 253c-4-3-7-19-7-33 0-15-7-33-15-40-17-14-19-29-5-50 6-9 28-15 65-16 48-2 53 0 38 11-14 11-16 16-5 26 19 20 14 34-6 16-16-15-19-15-30 3-9 15-9 24-1 39 20 31-10 69-34 44zm31-20c-5-25-28-28-28-4 0 12 6 21 16 21 9 0 14-7 12-17zm-4-75c14-20 14-23 0-31-23-13-44 0-44 28 0 31 23 33 44 3z"/><path d="m1917 253c-10-16-47-118-47-128 0-5 5-2 11 8 13 22 77 24 85 2 4-8 10-15 14-15 9 0-36 119-50 133-4 5-10 5-13 0zm28-65c6-25 5-28-19-28-29 0-31 6-16 46 12 31 25 24 35-18z"/><path d="m2030 190v-70h35c45 0 70 34 61 85-7 37-30 55-70 55-25 0-26-2-26-70zm61 50c14-8 19-21 19-48 0-44-14-62-47-62-21 0-23 4-23 53 0 69 9 79 51 57z"/><path d="m2162 250c3-8 14-41 24-72 10-32 23-58 29-58 9 0 40 74 53 130 9 36-17-9-33-57-9-29-18-53-20-53s-11 24-20 53c-10 28-22 57-28 62-7 7-8 5-5-5z"/><path d="m2318 190c2-38 7-70 12-70s10 32 12 70c2 57 0 70-12 70s-14-13-12-70z"/><path d="m2407 253c-19-18-5-52 28-72 19-11 35-27 35-36 0-21-29-31-51-16-11 6-19 7-19 2 0-14 37-23 60-16 14 4 20 15 20 34 0 21-8 31-35 44-37 17-46 43-19 54 8 3 20 1 27-6 17-17 31-13 17 4-13 15-51 20-63 8z"/><path d="m2536 238c-46-65 15-165 68-112 18 18 21 85 6 115-14 26-55 24-74-3zm64-7c26-49-1-127-37-105-22 13-30 88-12 110 16 20 36 18 49-5z"/><path d="m2671 188c1-47 4-63 8-44 8 41 25 42 51 6 12-17 25-29 28-26s-3 15-14 27c-17 19-18 21-1 30 22 13 23 65 1 73-9 3-29 6-45 6h-29zm73 39c8-14 8-20-4-27-36-23-70-1-56 36 8 20 45 15 60-9z"/><path d="m2800 257c0-4 11-25 25-47s25-52 26-67c1-28 1-28 9 3 4 18 17 48 30 68 12 21 20 39 17 42-2 3-15-12-28-32-20-34-24-36-33-20-17 29-45 62-46 53z"/><path d="m2962 248c-21-21-14-37 29-63 41-27 45-41 16-59-12-8-21-5-36 8-22 20-30 9-9-12 15-15 51-15 66 0 22 22 13 48-23 69-19 12-35 27-35 35 0 21 28 28 47 13 14-12 16-12 11 1-6 19-49 25-66 8z"/><path d="m3097 253c-4-3-7-35-7-70v-63l48 2c43 1 44 2 10 5-33 4-38 8-38 29 0 20 5 24 30 24 17 0 30 5 30 10 0 6-13 10-30 10-25 0-30 4-30 24 0 21 5 25 38 29l37 4-41 1c-22 1-44-1-47-5z"/><path d="m3242 188c0-40 3-58 5-40 5 40 26 42 50 2 9-17 21-30 26-30s2 12-8 26c-15 23-15 27-1 43 33 36 12 71-41 71h-33zm63 48c16-12 17-16 6-30-7-9-24-16-37-16-18 0-24 5-24 23 0 39 21 48 55 23z"/><path d="m3372 250c3-8 14-41 24-72 10-32 23-58 29-58s19 26 29 58c10 31 21 64 24 72 3 10 2 12-5 5-6-5-18-34-28-62-9-29-18-53-20-53s-11 24-20 53c-10 28-22 57-28 62-7 7-8 5-5-5z"/><path d="m3528 190c2-38 7-70 12-70s10 32 12 70c2 57 0 70-12 70s-14-13-12-70z"/><path d="m3616 238c-32-45-10-128 34-128 20 0 55 29 45 38-3 3-12-3-20-14-30-40-80 30-57 81 16 35 41 43 59 19 14-19 15-19 11 1-5 30-52 32-72 3z"/><path d="m3750 190v-70l48 2 47 1-42 4c-38 4-43 7-43 29 0 20 5 24 30 24 17 0 30 5 30 10 0 6-14 10-31 10-26 0-30 3-27 23 2 16 12 24 38 28l35 6-42 2-43 1z"/><path d="m3892 248c-21-21-14-37 29-63 41-27 45-41 16-59-12-8-21-5-36 8-22 20-30 9-9-12 15-15 51-15 66 0 22 22 13 48-23 69-19 12-35 27-35 35 0 21 28 28 47 13 14-12 16-12 11 1-6 19-49 25-66 8z"/><path d="m4032 248c-18-18-15-101 4-124 15-19 16-19 8 1-14 37-16 93-5 114 13 24 11 27-7 9z"/><path d="m4111 188c1-49 4-63 8-43 5 25 12 31 41 35 27 4 36 10 38 28 5 33-15 52-54 52h-34zm69 47c19-23 4-45-30-45-25 0-30 4-30 23 0 13 3 27 7 30 11 12 40 8 53-8z"/><path d="m4426 245c16-44 16-86 0-110-9-14-12-25-7-25 31 0 42 103 15 136-15 19-16 19-8-1z"/><path d="m4572 193-2-73 43 2 42 1-37 4-37 4-4 67-3 67z"/><path d="m4820 236c0-19-4-22-25-19-19 4-27 0-36-20-21-45 14-108 44-78 5 5 15 7 21 5 7-3 11 18 11 66 0 38-3 70-7 70-5 0-8-11-8-24zm-12-38c15-15 16-50 1-65-19-19-39-3-39 31 0 45 14 58 38 34z"/><path d="m6425 224c-59-53-122-95-174-116-42-17-43-18-11-12 56 10 143 61 196 115 56 56 48 65-11 13z"/><path d="m4243 225c-6-14-7-25-2-25s9-18 9-39c0-43 15-61 33-41 9 9 8 11-3 8-20-4-27 61-8 73 9 6 9 9 1 9-6 0-13 9-15 20-3 18-4 18-15-5z"/><path d="m4689 228c-2-50 3-103 11-112 4-4 16-3 27 4 16 10 16 11 1 6-12-4-18 0-19 12 0 9-2 25-4 34-2 10 4 22 13 28 10 5 12 10 5 10s-13 9-13 20c0 28-20 25-21-2z"/><path d="m4320 169c16-39 18-54 9-65-6-8-15-11-20-8s-9 0-9-5c0-6 7-11 16-11 16 0 48 63 58 115 6 26 4 25-13-10l-19-40-11 28c-6 16-11 33-11 38s-4 9-10 9c-5 0-1-23 10-51z"/></g></svg>