<svg xmlns="http://www.w3.org/2000/svg" xmlns:xlink="http://www.w3.org/1999/xlink" viewBox="0 0 750 500"><defs><clipPath id="freepik--clip-path--inject-8"><path d="M365.63,173.8s-13.3-.18-16.23,4.17-15,31.42-15,31.42l18.87,9.82,4.06-11.6,6.62,24.25c-7.58,6-18.32,60.63-16.18,83.64l70.88.23s.49-63.84-18.68-84.83l4.49-25.35,4.33,12.37,20-8.3-15.05-27.07a14.58,14.58,0,0,0-12.66-7.49l-4.91,0s-2.07,18.12-15.24,17.77S365.63,173.8,365.63,173.8Z" style="fill:none"></path></clipPath><clipPath id="freepik--clip-path-2--inject-8"><path d="M222.74,221.21,239.59,209l21.9,25.93a11.1,11.1,0,0,1,2.25,10l-7.38,28a9.39,9.39,0,0,1-9.73,7h0A9.39,9.39,0,0,1,238,269.31L241.24,244Z" style="fill:none"></path></clipPath><clipPath id="freepik--clip-path-3--inject-8"><path d="M231.44,212.25,248.29,200l21.9,25.93a11.09,11.09,0,0,1,2.25,10l-7.37,28a9.39,9.39,0,0,1-9.74,7h0a9.39,9.39,0,0,1-8.65-10.56l3.26-25.26Z" style="fill:none"></path></clipPath></defs><g id="freepik--background-complete--inject-8"><path d="M589.59,257.64,430,229.19a7.54,7.54,0,0,1-6.1-8.75l17.57-98.6a7.55,7.55,0,0,1,8.75-6.1l159.62,28.45a7.54,7.54,0,0,1,6.1,8.75l-17.58,98.6A7.54,7.54,0,0,1,589.59,257.64Z" style="fill:#e0e0e0"></path><path d="M586.83,167.33a12.23,12.23,0,1,1-9.89-14.19A12.21,12.21,0,0,1,586.83,167.33Z" style="fill:#fff"></path><path d="M589.33,180.5a13.27,13.27,0,0,1-2.26-.2,12.7,12.7,0,1,1,2.26.2Zm0-24.47a11.74,11.74,0,1,0,11.55,13.79h0a11.73,11.73,0,0,0-9.49-13.6A11.12,11.12,0,0,0,589.3,156Z" style="fill:#fff"></path><path d="M445.29,189.76l-1.72,9.68-1-.18,1.57-8.8-2.28-.4.15-.89Z" style="fill:#fff"></path><path d="M453.68,200.33l-.15.89-6.8-1.21.13-.71,4.73-3.23c1.28-.88,1.61-1.49,1.72-2.16.2-1.12-.46-1.95-1.94-2.21a3.32,3.32,0,0,0-2.84.6l-.59-.73a4.38,4.38,0,0,1,3.67-.77c2,.35,3,1.57,2.75,3.18-.17.93-.61,1.71-2.13,2.75l-3.87,2.65Z" style="fill:#fff"></path><path d="M464.17,200.49l-1.93-.35-.46,2.55-1-.18.45-2.54-5.46-1,.12-.72,6.28-5.5,1.11.19-6.07,5.37,4.21.75.4-2.24,1,.18-.39,2.24,1.93.34Z" style="fill:#fff"></path><path d="M479,203.13l-1.94-.34-.45,2.54-1-.17.45-2.55-5.46-1,.13-.72,6.28-5.51,1.1.2L472.06,201l4.21.75.4-2.24,1,.17-.4,2.24,1.93.35Z" style="fill:#fff"></path><path d="M487.54,204.34c-.3,1.65-1.68,2.73-4,2.31a5.05,5.05,0,0,1-3.25-1.87l.62-.7a4.27,4.27,0,0,0,2.78,1.65c1.64.29,2.66-.35,2.87-1.53s-.42-2.16-2.88-2.6l-2.06-.36,1.36-4.77,5.3.94-.16.89-4.42-.79-.88,3,1.24.23C486.94,201.28,487.84,202.62,487.54,204.34Z" style="fill:#fff"></path><path d="M497.12,206a3.07,3.07,0,0,1-3.84,2.39c-2.57-.46-3.65-2.49-3.11-5.55.59-3.29,2.69-4.69,5.32-4.22a4.47,4.47,0,0,1,2.2.93l-.54.73a3.55,3.55,0,0,0-1.8-.79c-2.09-.37-3.67.73-4.14,3.36,0,.22-.07.5-.1.8a3.15,3.15,0,0,1,3.26-1.13C496.29,202.86,497.43,204.23,497.12,206Zm-1-.14c.23-1.28-.57-2.26-2.06-2.53A2.28,2.28,0,0,0,491.2,205c-.19,1.06.51,2.23,2.19,2.53A2.15,2.15,0,0,0,496.13,205.86Z" style="fill:#fff"></path><path d="M510.35,208.48c-.29,1.62-1.69,2.65-4,2.23a5.07,5.07,0,0,1-3.26-1.86l.62-.7a4.32,4.32,0,0,0,2.8,1.65c1.61.29,2.63-.3,2.84-1.51s-.47-2.06-2.27-2.39l-.69-.12.13-.73,3.28-2.89-4.95-.88.16-.88,6.22,1.11-.12.7-3.36,3C509.78,205.65,510.62,206.93,510.35,208.48Z" style="fill:#fff"></path><path d="M520.08,210.1a3.07,3.07,0,0,1-3.84,2.38c-2.57-.46-3.65-2.49-3.11-5.55.59-3.29,2.69-4.69,5.32-4.22a4.65,4.65,0,0,1,2.21.94l-.55.73a3.47,3.47,0,0,0-1.8-.79c-2.09-.38-3.67.73-4.14,3.36,0,.22-.07.5-.1.79a3.15,3.15,0,0,1,3.26-1.13C519.25,207,520.39,208.33,520.08,210.1Zm-1-.15c.23-1.27-.57-2.26-2.06-2.52a2.27,2.27,0,0,0-2.87,1.67c-.19,1.06.52,2.23,2.19,2.53A2.15,2.15,0,0,0,519.09,210Z" style="fill:#fff"></path><path d="M530.2,204.89l-.13.71-5.65,8.25-1.08-.19,5.55-8.09-5-.89-.32,1.82-1-.18.49-2.7Z" style="fill:#fff"></path><path d="M544,207.36l-.12.71-5.66,8.25-1.08-.19,5.56-8.09-5-.89-.33,1.82-1-.18.48-2.7Z" style="fill:#fff"></path><path d="M552.33,216.05c-.31,1.71-2,2.52-4.26,2.11s-3.55-1.74-3.24-3.45a2.47,2.47,0,0,1,2.29-2.05,2.22,2.22,0,0,1-1.14-2.4c.28-1.58,1.8-2.32,3.84-1.95s3.25,1.59,3,3.16a2.24,2.24,0,0,1-1.93,1.86A2.49,2.49,0,0,1,552.33,216.05Zm-1-.2c.21-1.19-.68-2.12-2.4-2.43s-2.86.27-3.07,1.46.66,2.13,2.38,2.43S551.09,217.05,551.31,215.85Zm-2.26-3.21c1.51.26,2.53-.25,2.72-1.3s-.64-1.93-2.1-2.19-2.51.24-2.7,1.32S547.54,212.37,549.05,212.64Z" style="fill:#fff"></path><path d="M562.13,215.5c-.59,3.29-2.69,4.68-5.32,4.21a4.47,4.47,0,0,1-2.2-.93l.54-.73a3.47,3.47,0,0,0,1.8.79c2.09.37,3.67-.73,4.14-3.36a7.36,7.36,0,0,0,.1-.79,3.16,3.16,0,0,1-3.26,1.13c-1.92-.35-3.06-1.72-2.74-3.49a3.07,3.07,0,0,1,3.83-2.39C561.6,210.4,562.68,212.44,562.13,215.5Zm-1-2.17c.19-1.07-.51-2.24-2.19-2.53a2.15,2.15,0,0,0-2.74,1.68c-.22,1.27.57,2.25,2.07,2.52A2.27,2.27,0,0,0,561.1,213.33Z" style="fill:#fff"></path><path d="M572.8,212.49l-1.73,9.68-1-.18,1.57-8.8-2.29-.4.16-.89Z" style="fill:#fff"></path><path d="M581.19,223.06,581,224l-6.79-1.21.13-.71,4.72-3.23c1.29-.88,1.61-1.49,1.73-2.16.2-1.12-.46-1.95-1.94-2.21a3.32,3.32,0,0,0-2.84.6l-.6-.73a4.42,4.42,0,0,1,3.68-.77c2,.35,3,1.57,2.75,3.19-.17.92-.61,1.7-2.14,2.74l-3.87,2.65Z" style="fill:#fff"></path><path d="M590.22,222.71c-.29,1.62-1.69,2.66-4,2.24a5.08,5.08,0,0,1-3.26-1.87l.62-.7a4.34,4.34,0,0,0,2.8,1.66c1.61.28,2.63-.3,2.84-1.51s-.47-2.07-2.27-2.39l-.69-.12.13-.73,3.28-2.89-4.95-.88.16-.89,6.22,1.11-.12.71-3.36,3C589.65,219.89,590.49,221.16,590.22,222.71Z" style="fill:#fff"></path><rect x="550.34" y="189.02" width="4.27" height="78.8" transform="translate(230.67 732.25) rotate(-79.89)" style="fill:#fff"></rect><rect x="567.74" y="219.98" width="4.27" height="40.41" transform="translate(233.43 759.08) rotate(-79.89)" style="fill:#fff"></rect><g style="opacity:0.5"><rect x="442.78" y="158.75" width="33.06" height="24.7" rx="4.96" transform="translate(37.16 -77.96) rotate(10.11)" style="fill:#ebebeb"></rect></g><path d="M442.07,173.62l.28-1.56,16.76,3a3.57,3.57,0,0,0,1.25-7l-16.76-3,.28-1.56,16.76,3a5.15,5.15,0,0,1-1.81,10.14Z" style="fill:#e0e0e0"></path><rect x="468.98" y="167.49" width="1.58" height="11.68" transform="translate(216.29 605.16) rotate(-79.84)" style="fill:#e0e0e0"></rect><rect x="451.32" y="144.12" width="85.03" height="7.3" transform="translate(33.61 -84.4) rotate(10.11)" style="fill:#fff"></rect><rect x="170.89" y="43.66" width="141.74" height="146.24" rx="8.76" transform="translate(-20.74 60.39) rotate(-13.66)" style="fill:#e0e0e0"></rect><path d="M276.17,137.66s-.08,0-.27.09l-.8.23-3.12.82-11.59,2.91-39,9.57-.26.07-.1-.26-2.48-6.24c-7.19-18.28-13.61-34.61-17.8-45.24l.24.12-10.4,2.43-2.78.62-.72.15a.74.74,0,0,1-.24,0s.07,0,.23-.09l.71-.2,2.74-.72,10.36-2.61.17,0,.07.16,18,45.16c.85,2.14,1.69,4.25,2.47,6.24l-.36-.19,39-9.37,11.63-2.73,3.15-.71.82-.17Z" style="fill:#fff"></path><path d="M217,140l.27-.1.81-.22,3.12-.81,11.71-2.94L273.34,126l-.23.31c-.45-7.1-.95-14.78-1.46-22.72-.25-4.09-.51-8.11-.75-11.94l.39.29-47.7,11.48-14.14,3.34-3.82.87-1,.21a1.1,1.1,0,0,1-.34.05,1.89,1.89,0,0,1,.33-.11l1-.26,3.79-1,14.1-3.52,47.65-11.69.36-.09,0,.37c.24,3.83.5,7.85.76,11.94.5,7.94,1,15.62,1.43,22.72l0,.26-.25.06L233,136.32l-11.75,2.76-3.15.71-.81.18A1.48,1.48,0,0,1,217,140Z" style="fill:#fff"></path><path d="M238.68,162.52c-.06,0-.17-.47-.61-1.23a5.62,5.62,0,0,0-2.71-2.39,5.37,5.37,0,1,0,2,8.37,5.67,5.67,0,0,0,1.31-3.37c0-.87-.09-1.36,0-1.38s.06.12.13.35a4.36,4.36,0,0,1,.15,1,5.65,5.65,0,0,1-1.21,3.65,5.85,5.85,0,0,1-5.2,2.2,5.91,5.91,0,0,1-2.63-10.83,5.83,5.83,0,0,1,5.63-.43,5.6,5.6,0,0,1,2.74,2.68,4.26,4.26,0,0,1,.35,1C238.69,162.4,238.7,162.52,238.68,162.52Z" style="fill:#fff"></path><path d="M274,154c-.06,0-.18-.47-.61-1.24a5.61,5.61,0,0,0-2.71-2.38,5.36,5.36,0,1,0,2,8.36,5.71,5.71,0,0,0,1.31-3.36c0-.88-.09-1.37,0-1.38s.06.11.13.34a4.06,4.06,0,0,1,.14,1A5.6,5.6,0,0,1,273,159a5.82,5.82,0,0,1-5.19,2.2,5.91,5.91,0,0,1-2.64-10.83,5.83,5.83,0,0,1,5.63-.43,5.59,5.59,0,0,1,2.75,2.68,3.73,3.73,0,0,1,.34,1C274,153.82,274,154,274,154Z" style="fill:#fff"></path><path d="M282.51,83a16.1,16.1,0,1,1-19.44-11.84A16.09,16.09,0,0,1,282.51,83Z" style="fill:#fff"></path><path d="M273.7,80.81a16.82,16.82,0,0,1-1.45,3c-1,1.81-2.34,4.29-3.9,7l-1.67,2.89-.14.25-.26-.13c-2-1.09-3.81-2-5-2.74a9.91,9.91,0,0,1-1.91-1.2,9.49,9.49,0,0,1,2.09.86c1.28.61,3.08,1.49,5.15,2.54l-.4.12c.51-.92,1.07-1.9,1.64-2.91,1.55-2.72,3-5.16,4.06-6.91A15.7,15.7,0,0,1,273.7,80.81Z" style="fill:#e0e0e0"></path></g><g id="freepik--Floor--inject-8"><path d="M691.3,466.59c0,.14-143.57.26-320.63.26S50,466.73,50,466.59s143.54-.26,320.66-.26S691.3,466.44,691.3,466.59Z" style="fill:#263238"></path></g><g id="freepik--Device--inject-8"><path d="M446.35,466.79l-132.86-.62a28.94,28.94,0,0,1-28.81-29.06L286.09,104A29,29,0,0,1,315.17,75.2L448,75.81a29,29,0,0,1,28.81,29.07L475.43,438A29,29,0,0,1,446.35,466.79Z" style="fill:#455a64"></path><path d="M447.84,87.31l-25.76-.12a6.4,6.4,0,0,0-6.28,6.51l0,4.67a6.39,6.39,0,0,1-6.28,6.51l-50.22-.23a6.39,6.39,0,0,1-6.22-6.57l0-4.67a6.42,6.42,0,0,0-6.23-6.57l-9.06,0-22.55-.1a20.27,20.27,0,0,0-20.36,20.18L293.51,432a20.27,20.27,0,0,0,20.17,20.36l132.6.61a20.27,20.27,0,0,0,20.36-20.19L468,107.66A20.27,20.27,0,0,0,447.84,87.31Z" style="fill:#fafafa"></path><path d="M450.74,119.31a21.48,21.48,0,0,1-3.33.17c-2.07,0-4.94.08-8.18.09H439l0-.22c-.06-.44-.13-.9-.19-1.36-.56-4-1-7.54-1.28-9.84l.16.14a18.08,18.08,0,0,1-3-.17,19,19,0,0,1,3-.16h.14l0,.14c.37,2.29.91,5.84,1.46,9.82.07.46.13.92.19,1.35l-.25-.22c3.24,0,6.11,0,8.18.09A21.48,21.48,0,0,1,450.74,119.31Z" style="fill:#263238"></path><path d="M438.89,116.92a4.86,4.86,0,0,1,.89-.08l2.46-.07c2.11,0,5.07-.08,8.5-.09l-.25.2.8-4.58c.15-.82.29-1.63.43-2.4l.25.3c-4,0-7.49,0-10-.09l-3-.07a4,4,0,0,1-1.07-.1,5.13,5.13,0,0,1,1.07-.09l3-.08c2.52,0,6-.07,10-.08h.31l0,.3c-.14.77-.28,1.58-.42,2.4-.29,1.6-.57,3.14-.82,4.58l0,.21h-.21c-3.43,0-6.39,0-8.5-.09l-2.46-.07A3.52,3.52,0,0,1,438.89,116.92Z" style="fill:#263238"></path><path d="M442.1,122.44c-.08,0-.08-.45-.56-.77a1,1,0,0,0-.9-.09.92.92,0,0,0,0,1.71,1,1,0,0,0,.9-.09c.48-.31.48-.78.56-.76s.08.1.07.3a1.2,1.2,0,0,1-.41.76,1.33,1.33,0,0,1-1.28.24,1.38,1.38,0,0,1,0-2.61,1.33,1.33,0,0,1,1.28.24,1.2,1.2,0,0,1,.41.76C442.18,122.33,442.14,122.44,442.1,122.44Z" style="fill:#263238"></path><path d="M449.51,122.44c-.08,0-.08-.45-.56-.77a1,1,0,0,0-.9-.09.92.92,0,0,0,0,1.71,1,1,0,0,0,.9-.09c.48-.31.48-.78.56-.76s.08.1.07.3a1.2,1.2,0,0,1-.41.76,1.33,1.33,0,0,1-1.28.24,1.37,1.37,0,0,1-.94-1.3,1.39,1.39,0,0,1,.94-1.31,1.33,1.33,0,0,1,1.28.24,1.2,1.2,0,0,1,.41.76C449.59,122.33,449.55,122.44,449.51,122.44Z" style="fill:#263238"></path><path d="M332.6,120.53a95.91,95.91,0,0,1-9.91.26,95.75,95.75,0,0,1-9.91-.26,92.49,92.49,0,0,1,9.91-.26A92.65,92.65,0,0,1,332.6,120.53Z" style="fill:#263238"></path><path d="M332.6,116.78a92.65,92.65,0,0,1-9.91.26,92.49,92.49,0,0,1-9.91-.26,95.75,95.75,0,0,1,9.91-.26A95.91,95.91,0,0,1,332.6,116.78Z" style="fill:#263238"></path><path d="M332.6,113a95.91,95.91,0,0,1-9.91.26,95.75,95.75,0,0,1-9.91-.26,95.75,95.75,0,0,1,9.91-.26A95.91,95.91,0,0,1,332.6,113Z" style="fill:#263238"></path><g style="clip-path:url(#freepik--clip-path--inject-8)"><path d="M365.63,173.8s-13.3-.18-16.23,4.17-15,31.42-15,31.42l18.87,9.82,4.06-11.6,6.62,24.25c-7.58,6-18.32,60.63-16.18,83.64l70.88.23s.49-63.84-18.68-84.83l4.49-25.35,4.33,12.37,20-8.3-15.05-27.07a14.58,14.58,0,0,0-12.66-7.49l-4.91,0s-2.07,18.12-15.24,17.77S365.63,173.8,365.63,173.8Z" style="fill:#DF9205"></path><path d="M433.81,259.88a1.64,1.64,0,0,1,0-.32c0-.24,0-.55-.08-.94a9.63,9.63,0,0,0-.17-1.52,15,15,0,0,0-.43-2,18.85,18.85,0,0,0-2.21-5.24,19.63,19.63,0,0,0-23.58-8.34,18.19,18.19,0,0,0-4.95,2.67,21.86,21.86,0,0,0-2.22,1.88,22.25,22.25,0,0,0-1.92,2.28,19.65,19.65,0,0,0-3.81,11.56,21.21,21.21,0,0,0,1,6.18,19.24,19.24,0,0,0,2.8,5.4,18,18,0,0,0,4.14,4.16,18.47,18.47,0,0,0,4.95,2.67,19.66,19.66,0,0,0,23.58-8.35,18.55,18.55,0,0,0,2.21-5.24,15.22,15.22,0,0,0,.43-2,9.88,9.88,0,0,0,.17-1.52c0-.39.06-.7.08-.94a1.64,1.64,0,0,1,0-.32,1.57,1.57,0,0,1,0,.32l0,.95a9.33,9.33,0,0,1-.13,1.53,13.42,13.42,0,0,1-.38,2.06,18.66,18.66,0,0,1-2.16,5.34,20,20,0,0,1-13.45,9.49,20.12,20.12,0,0,1-10.54-.84,18.71,18.71,0,0,1-5.09-2.72,24.26,24.26,0,0,1-2.28-1.93,22,22,0,0,1-2-2.33,19.53,19.53,0,0,1-2.88-5.53,21.38,21.38,0,0,1-1-6.35A20.15,20.15,0,0,1,397.8,248a21.93,21.93,0,0,1,2-2.32,22.84,22.84,0,0,1,2.28-1.93,19.17,19.17,0,0,1,5.09-2.73,20.12,20.12,0,0,1,10.54-.84,20,20,0,0,1,13.45,9.5,18.62,18.62,0,0,1,2.16,5.33,13.32,13.32,0,0,1,.38,2.07,9.25,9.25,0,0,1,.13,1.53l0,.95A1.57,1.57,0,0,1,433.81,259.88Z" style="fill:#fafafa"></path><path d="M371.36,215.34a25.1,25.1,0,0,0-.56-3.56,14.49,14.49,0,0,0-19-10,14.41,14.41,0,0,0-6.69,5,14.33,14.33,0,0,0,0,17,13.42,13.42,0,0,0,3,3.06,13.57,13.57,0,0,0,3.64,2,14.42,14.42,0,0,0,7.58.64,14.25,14.25,0,0,0,6.09-2.68,14.62,14.62,0,0,0,5.34-8,24.88,24.88,0,0,0,.56-3.55.87.87,0,0,1,0,.24c0,.18,0,.41,0,.7a6.26,6.26,0,0,1-.09,1.13,10.12,10.12,0,0,1-.27,1.53,13.91,13.91,0,0,1-1.59,4,14.86,14.86,0,0,1-10,7,14.9,14.9,0,0,1-7.82-.62,13.55,13.55,0,0,1-3.78-2,13.93,13.93,0,0,1-3.16-3.16,14.81,14.81,0,0,1,0-17.63,14.14,14.14,0,0,1,3.16-3.16,13.78,13.78,0,0,1,3.78-2,14.77,14.77,0,0,1,17.78,6.43,14,14,0,0,1,1.59,3.95,10.45,10.45,0,0,1,.27,1.54,6.13,6.13,0,0,1,.09,1.13c0,.28,0,.51,0,.7A.87.87,0,0,1,371.36,215.34Z" style="fill:#fafafa"></path><path d="M371.35,301.65c-.05,0-.05-.4-.24-1.07a4.45,4.45,0,0,0-1.65-2.35,4.27,4.27,0,1,0,0,6.85,4.45,4.45,0,0,0,1.65-2.35c.19-.68.19-1.08.24-1.08s0,.1,0,.29a3.66,3.66,0,0,1-.08.84,4.47,4.47,0,0,1-1.62,2.59,4.67,4.67,0,0,1-4.45.73,4.72,4.72,0,0,1,0-8.89,4.67,4.67,0,0,1,4.45.73,4.47,4.47,0,0,1,1.62,2.59,3.58,3.58,0,0,1,.08.83C371.38,301.56,371.37,301.65,371.35,301.65Z" style="fill:#fafafa"></path><path d="M363.56,186.51c-.05,0-.05-.4-.24-1.07a4.45,4.45,0,0,0-1.65-2.35,4.27,4.27,0,1,0,0,6.85,4.51,4.51,0,0,0,1.65-2.36c.19-.67.19-1.07.24-1.07a.74.74,0,0,1,0,.29,2.71,2.71,0,0,1-.08.83,4.39,4.39,0,0,1-1.62,2.6,4.64,4.64,0,0,1-4.44.73,4.72,4.72,0,0,1,0-8.89,4.64,4.64,0,0,1,4.44.73,4.37,4.37,0,0,1,1.62,2.59,2.73,2.73,0,0,1,.08.83A.74.74,0,0,1,363.56,186.51Z" style="fill:#fafafa"></path><path d="M378.2,280.12a2.73,2.73,0,0,1-.09-.42c-.06-.31-.13-.71-.22-1.2-.18-1.08-.44-2.6-.76-4.5l-2.62-15.91.25.19-22.06,3.51.22-.3h0v.07l0,.1,0,.19.06.37.12.76c.08.5.15,1,.23,1.49.16,1,.31,2,.46,2.95.31,1.95.61,3.86.89,5.71.58,3.7,1.12,7.2,1.62,10.41l-.26-.19L372,281l4.52-.65,1.21-.16.43-.05a1.58,1.58,0,0,1-.37.09l-1.16.21-4.45.76-16.05,2.64-.22,0,0-.23c-.51-3.21-1.07-6.7-1.66-10.4q-.45-2.79-.91-5.71c-.15-1-.3-1.95-.46-2.95l-.24-1.49-.12-.76-.06-.37,0-.19v-.17h0c-.2.27.26-.36.21-.3l22.07-3.43.23,0,0,.22c1,6.62,1.83,12.16,2.42,16.09.27,1.89.49,3.39.64,4.47.06.48.12.86.16,1.16A1.86,1.86,0,0,1,378.2,280.12Z" style="fill:#fafafa"></path><path d="M405.17,222.4a2.85,2.85,0,0,1,.25-.44c.19-.3.45-.7.76-1.21l2.88-4.53c2.51-3.89,6-9.4,10.28-16l.06.32-22.06-14.33.36-.08h0l0,0,0,0-.06.1-.13.18-.24.38-.49.75-1,1.5-1.92,3-3.71,5.69-6.8,10.39-.07-.32,15.86,10.47,4.47,3,1.19.8.41.3a2,2,0,0,1-.4-.23l-1.18-.73-4.49-2.86L383,208.23l-.19-.12.12-.19c2.09-3.21,4.35-6.71,6.76-10.41l3.7-5.71,1.92-2.94,1-1.5.49-.75.25-.38.12-.19.06-.09,0,0,0,0v0h0l.37-.08,22,14.39.19.12-.12.19-10.55,16-2.95,4.42-.78,1.15A3.66,3.66,0,0,1,405.17,222.4Z" style="fill:#fafafa"></path><path d="M390.27,289.7l-.09.17-.25.46-1,1.75-3.63,6.47c-3.08,5.46-7.54,13.23-12.76,22.31l-.21-.37,17.92,0,17.92,0-.21.37c-5.22-9.08-9.69-16.85-12.76-22.31l-3.63-6.47-1-1.75c-.1-.18-.19-.33-.25-.46l-.09-.17a4.34,4.34,0,0,1,.34.55l1,1.67,3.78,6.38c3.27,5.52,7.76,13.27,13,22.31l.21.37h-.42l-17.92,0-17.92,0h-.43l.22-.37c5.25-9,9.74-16.79,13-22.31l3.78-6.38,1-1.67A4.34,4.34,0,0,1,390.27,289.7Z" style="fill:#fafafa"></path><path d="M376.06,232.52s.05.15.13.4.19.66.32,1.09l1.16,4c1,3.35,2.29,8.21,3.83,13.88l-.41-.11,7.1-7.12,7.13-7.1.11.41c-5.67-1.55-10.53-2.87-13.88-3.83l-4-1.17-1.09-.32a2.31,2.31,0,0,1-.4-.13l.34.07,1.05.26,4,1c3.53.87,8.39,2.16,14.06,3.65l.42.11-.31.3c-2.19,2.21-4.6,4.62-7.1,7.13l-7.12,7.1-.3.3L381,252c-1.5-5.68-2.78-10.53-3.66-14.06-.41-1.68-.74-3-1-4l-.25-1.06A1.42,1.42,0,0,1,376.06,232.52Z" style="fill:#fafafa"></path></g><path d="M400.33,231c0,.15-8,.46-18,.7s-18,.32-18,.18,8-.46,18-.7S400.33,230.86,400.33,231Z" style="fill:#263238"></path><path d="M351.4,191.18a88.4,88.4,0,0,1,3.35,8.82,89.46,89.46,0,0,1,2.86,9,82.58,82.58,0,0,1-3.35-8.83A83.92,83.92,0,0,1,351.4,191.18Z" style="fill:#263238"></path><path d="M406.35,192.41a15.28,15.28,0,0,1-.19,2.88c-.19,1.77-.51,4.2-.94,6.88s-.89,5.1-1.26,6.84a14.9,14.9,0,0,1-.72,2.79,15.54,15.54,0,0,1,.36-2.86l1.11-6.85c.41-2.59.78-4.93,1.09-6.85A15.72,15.72,0,0,1,406.35,192.41Z" style="fill:#263238"></path><path d="M368.22,243.73a5.21,5.21,0,0,1-.39-1.9,14.78,14.78,0,0,1,2.22-9,5.13,5.13,0,0,1,1.23-1.5,19.88,19.88,0,0,0-3.06,12.38Z" style="fill:#263238"></path><path d="M373.61,238.13a6.24,6.24,0,0,1-.56-3.24,6.35,6.35,0,0,1,.65-3.23,29.33,29.33,0,0,1-.13,3.24C373.53,236.67,373.76,238.1,373.61,238.13Z" style="fill:#263238"></path><path d="M404.67,299a2.57,2.57,0,0,1-.6-.25c-.38-.2-1-.44-1.66-.86a30.56,30.56,0,0,1-5.56-4.06,38.74,38.74,0,0,1-6.53-7.83,50.1,50.1,0,0,1-5.3-11.31c-2.71-8.48-3.34-16.57-3.72-22.33-.17-2.89-.25-5.24-.3-6.86,0-.76,0-1.38,0-1.86a2.69,2.69,0,0,1,0-.65,4.42,4.42,0,0,1,.08.64c0,.48.08,1.1.13,1.86.12,1.68.28,4,.47,6.84.47,5.75,1.16,13.79,3.85,22.2a50.45,50.45,0,0,0,5.21,11.21,39.51,39.51,0,0,0,6.37,7.82,33.1,33.1,0,0,0,5.41,4.15C403.89,298.55,404.69,299,404.67,299Z" style="fill:#263238"></path><g style="opacity:0.2"><path d="M381.7,249.86a40.64,40.64,0,0,0,15,26.26c3,2.34,6.47,4.51,7.73,8.08,1,2.89.3,6.12-.95,8.92a4.22,4.22,0,0,1-2.4,2.63c-1.22.32-2.45-.41-3.45-1.16-6.57-4.95-10.8-12.5-13.17-20.37s-3-16.15-3.62-24.35"></path></g><path d="M421,354.55c0,.15-16.9.26-37.73.26s-37.73-.11-37.73-.26,16.89-.26,37.73-.26S421,354.41,421,354.55Z" style="fill:#263238"></path><path d="M421,146.51c0,.14-16.9.26-37.73.26s-37.73-.12-37.73-.26,16.89-.26,37.73-.26S421,146.36,421,146.51Z" style="fill:#263238"></path><path d="M421,360.78c0,.14-16.9.26-37.73.26s-37.73-.12-37.73-.26,16.89-.26,37.73-.26S421,360.64,421,360.78Z" style="fill:#263238"></path><path d="M378.15,378.92v10.86h-2.51v-8.85h-2.18v-2Z"></path><path d="M380,384.35c0-3.59,2-5.62,4.66-5.62s4.66,2,4.66,5.62-2,5.62-4.66,5.62S380,387.93,380,384.35Zm6.79,0c0-2.47-.87-3.49-2.13-3.49s-2.11,1-2.11,3.49.87,3.49,2.11,3.49S386.83,386.82,386.83,384.35Z"></path><path d="M396.29,381.3a2.16,2.16,0,0,1-2.26,2.38,2.32,2.32,0,0,1-1.22-.31l.38-.75a1.37,1.37,0,0,0,.82.22,1.17,1.17,0,0,0,1.25-1.28,1.55,1.55,0,0,1-1.1.39,1.4,1.4,0,0,1-1.52-1.37,1.52,1.52,0,0,1,1.67-1.48C395.54,379.1,396.29,379.87,396.29,381.3Zm-1.14-.77c0-.38-.29-.66-.78-.66a.66.66,0,0,0-.73.66.66.66,0,0,0,.75.66A.69.69,0,0,0,395.15,380.53Z" style="fill:#263238"></path><path d="M400.31,381.3a2.16,2.16,0,0,1-2.26,2.38,2.32,2.32,0,0,1-1.22-.31l.38-.75a1.38,1.38,0,0,0,.83.22,1.17,1.17,0,0,0,1.24-1.28,1.55,1.55,0,0,1-1.1.39,1.4,1.4,0,0,1-1.52-1.37,1.52,1.52,0,0,1,1.67-1.48C399.56,379.1,400.31,379.87,400.31,381.3Zm-1.15-.77a.76.76,0,1,0-.75.66A.68.68,0,0,0,399.16,380.53Z" style="fill:#263238"></path><rect x="392.51" y="385.19" width="7.76" height="0.98" style="fill:#263238"></rect><path d="M404.87,346.59c0,.14-9.35.26-20.89.26s-20.89-.12-20.89-.26,9.35-.26,20.89-.26S404.87,346.45,404.87,346.59Z" style="fill:#DF9205"></path><circle cx="439.16" cy="383.6" r="15.08" transform="translate(-113.37 197.26) rotate(-22.5)" style="fill:#DF9205"></circle><path d="M435.35,392.06a4.87,4.87,0,0,1,.83-.74c.56-.46,1.37-1.1,2.38-1.88,2-1.57,4.84-3.71,8-6.05,0,.84,0,.23,0,.42h0l0,0,0,0-.07-.06-.15-.11-.29-.21-.57-.44-1.12-.84-2.12-1.6-3.57-2.73-2.38-1.88a5.13,5.13,0,0,1-.83-.75,4.29,4.29,0,0,1,.95.58l2.48,1.75,3.64,2.65,2.13,1.57,1.13.84.58.43.29.22.14.1.08.06,0,0h0c0,.19,0-.41,0,.42-3.13,2.34-6,4.43-8.06,5.92l-2.48,1.75A4.29,4.29,0,0,1,435.35,392.06Z" style="fill:#fafafa"></path><circle cx="325" cy="383.6" r="15.08" transform="translate(-105.71 642.96) rotate(-80.78)" style="fill:#DF9205"></circle><path d="M328.81,375.14a4.61,4.61,0,0,1-.83.75c-.55.45-1.37,1.09-2.38,1.88-2,1.57-4.83,3.7-8,6v-.41h0l0,0,.08.05.14.11.29.22.58.43,1.12.84,2.12,1.6,3.56,2.74c1,.78,1.83,1.42,2.38,1.88a4.4,4.4,0,0,1,.83.74,4.57,4.57,0,0,1-.95-.58l-2.48-1.75-3.63-2.64-2.14-1.58-1.12-.84-.58-.42-.29-.22-.15-.11-.07-.05,0,0v0h0v-.42c3.13-2.33,6-4.42,8.05-5.92,1-.68,1.8-1.27,2.48-1.75A4.57,4.57,0,0,1,328.81,375.14Z" style="fill:#fafafa"></path><rect x="314.45" y="409.3" width="30.13" height="30.13" style="fill:#e0e0e0"></rect><rect x="352.67" y="409.3" width="30.13" height="30.13" style="fill:#e0e0e0"></rect><rect x="390.9" y="409.3" width="30.13" height="30.13" style="fill:#e0e0e0"></rect><rect x="429.12" y="409.3" width="30.13" height="30.13" style="fill:#e0e0e0"></rect><rect x="354.5" y="136.05" width="56.22" height="3.2" style="fill:#DF9205"></rect></g><g id="freepik--Bag--inject-8"><path d="M596.94,409.63a2.08,2.08,0,0,1-.05-.59c0-.45,0-1,0-1.7,0-1.55-.05-3.67-.08-6.26,0-1.33,0-2.78,0-4.32,0-.78,0-1.58,0-2.41a18.92,18.92,0,0,1,.08-2.58,8.57,8.57,0,0,1,16.74-1.17,9.33,9.33,0,0,1,.32,2.59c0,.83,0,1.63,0,2.41q0,2.32,0,4.32c0,2.59-.06,4.71-.08,6.26,0,.69,0,1.25-.05,1.7a2.7,2.7,0,0,1,0,.59,2.08,2.08,0,0,1,0-.59c0-.45,0-1-.05-1.7,0-1.55,0-3.67-.09-6.26q0-2,0-4.32a18.73,18.73,0,0,0-.34-4.86,8.1,8.1,0,0,0-13.44-3.56,8.19,8.19,0,0,0-2.36,4.66,21.06,21.06,0,0,0-.09,2.51c0,.83,0,1.63,0,2.41,0,1.54,0,3,0,4.32,0,2.59-.06,4.71-.08,6.26l0,1.7A2.7,2.7,0,0,1,596.94,409.63Z" style="fill:#263238"></path><path d="M607.26,409.63a2.08,2.08,0,0,1,0-.59c0-.45,0-1-.05-1.7,0-1.55,0-3.67-.09-6.26,0-1.33,0-2.78,0-4.32,0-.78,0-1.58,0-2.41a18.92,18.92,0,0,1,.08-2.58,8.52,8.52,0,0,1,7.89-7.39,8.55,8.55,0,0,1,8.84,6.22,9,9,0,0,1,.33,2.59c0,.83,0,1.63,0,2.41q0,2.32,0,4.32c0,2.59-.06,4.71-.08,6.26,0,.69,0,1.25,0,1.7a2.7,2.7,0,0,1,0,.59,2.27,2.27,0,0,1-.06-.59c0-.45,0-1,0-1.7,0-1.55-.05-3.67-.09-6.26q0-2,0-4.32a18.73,18.73,0,0,0-.34-4.86,8.1,8.1,0,0,0-15.8,1.1,19.15,19.15,0,0,0-.09,2.51c0,.83,0,1.63,0,2.41,0,1.54,0,3,0,4.32,0,2.59-.06,4.71-.08,6.26l-.05,1.7A2.7,2.7,0,0,1,607.26,409.63Z" style="fill:#263238"></path><polygon points="584.43 405.23 577.48 466.62 625.2 466.62 631.22 405.23 584.43 405.23" style="fill:#DF9205"></polygon><polygon points="631.22 405.23 641.19 405.23 649.61 466.62 625.2 466.62 631.22 405.23" style="fill:#DF9205"></polygon><g style="opacity:0.4"><polygon points="631.22 405.23 641.19 405.23 649.61 466.62 625.2 466.62 631.22 405.23"></polygon></g><polygon points="582.47 422.5 628.33 434.71 626 458.5 579.73 446.74 582.47 422.5" style="fill:#fafafa"></polygon></g><g id="freepik--Character--inject-8"><path d="M510.11,311a30.91,30.91,0,0,0-.33,18.79c1.13,3.75,3,7.5,2.43,11.37-.47,3.16-2.52,5.92-2.93,9.09-.82,6.44,5.3,12.54,3.66,18.82a10,10,0,0,1-5.87,6.35,18.25,18.25,0,0,1-8.8,1.11c-4.39-.38-9.14-2-11.17-6-1.62-3.12-1.11-6.87-.55-10.33,2.48-15.32,5.34-30.75,11.55-45" style="fill:#263238"></path><path d="M512.06,358.35a3.32,3.32,0,0,1-.51.17,5.38,5.38,0,0,1-1.55.13,5.91,5.91,0,0,1-2.36-.68,5.31,5.31,0,0,1-2.26-2.31,5.86,5.86,0,0,1-.45-3.9,5.51,5.51,0,0,1,.94-2,8.43,8.43,0,0,1,1.67-1.65,45.61,45.61,0,0,0,4-3,7.93,7.93,0,0,0,2.22-4.63,13.34,13.34,0,0,0-.38-5.21,30.07,30.07,0,0,0-1.74-4.62,38.44,38.44,0,0,1-3-7.85,11.86,11.86,0,0,1,0-5.66,6.13,6.13,0,0,1,.82-1.91,12.34,12.34,0,0,0-.71,1.94,12.21,12.21,0,0,0,.08,5.58,39,39,0,0,0,3.07,7.78,30.48,30.48,0,0,1,1.78,4.66,13.77,13.77,0,0,1,.39,5.34,8.16,8.16,0,0,1-2.32,4.8,43.18,43.18,0,0,1-4,3,6.18,6.18,0,0,0-2.52,3.49,5.6,5.6,0,0,0,.39,3.74,5.24,5.24,0,0,0,2.15,2.26,6,6,0,0,0,2.28.71A6.64,6.64,0,0,0,512.06,358.35Z" style="fill:#263238"></path><path d="M451.59,457l-2.5,9.58-25.75-.24s1.89-4.51,16-4.3l1-5Z" style="fill:#b78876"></path><path d="M545.34,313.36c-.25.49-6.79,34.09-6.79,34.09l15.41.72,6-28.89Z" style="fill:#455a64"></path><polygon points="538.55 347.45 536.79 346.7 543.46 313.58 545.55 313.44 538.55 347.45" style="fill:#263238"></polygon><path d="M551.53,320.7a.8.8,0,1,0,.89-.69A.79.79,0,0,0,551.53,320.7Z" style="fill:#263238"></path><path d="M554.71,344.29l.23-4.4-6.58-2.72,2.57-6.09a5.31,5.31,0,0,1,7.39-2.53L561,330a7.56,7.56,0,0,1,3.75,4.87,98.58,98.58,0,0,1,1.53,10.75" style="fill:#b78876"></path><path d="M572.33,456.28s27.08,7.5,28.17,7.88c1.63.58,1.36,6.55-1.18,6.46-1.2,0-20.8.73-23.28.58s-9.95-3.1-9.95-3.1Z" style="fill:#DF9205"></path><path d="M583.61,466.62a25.61,25.61,0,0,1,1.2-2.91,25.93,25.93,0,0,1,1.91-2.49,6,6,0,0,0-3.11,5.4Z" style="fill:#263238"></path><path d="M580.79,465.34c.13,0,.41-1.26,1.13-2.67s1.57-2.41,1.47-2.5a5.11,5.11,0,0,0-1.88,2.29A5.24,5.24,0,0,0,580.79,465.34Z" style="fill:#263238"></path><path d="M578.14,464.63a19.54,19.54,0,0,1,.64-2.86,19.16,19.16,0,0,1,1.47-2.54,5.09,5.09,0,0,0-2.11,5.4Z" style="fill:#263238"></path><path d="M578.62,461.13a4.73,4.73,0,0,0,.29-2,9.26,9.26,0,0,0-.27-2.2,9.61,9.61,0,0,0-.4-1.26,1.47,1.47,0,0,0-.44-.66.73.73,0,0,0-.93,0,1.22,1.22,0,0,0-.36.77,4.31,4.31,0,0,0,0,.71,5.64,5.64,0,0,0,.16,1.33,8,8,0,0,0,.84,2.07,5.65,5.65,0,0,0,1.21,1.63c.07,0-.39-.67-.93-1.78a9.37,9.37,0,0,1-.71-2,6.2,6.2,0,0,1-.13-1.24c0-.42,0-.94.25-1.14a.28.28,0,0,1,.36,0,1.24,1.24,0,0,1,.3.48,12,12,0,0,1,.41,1.19,10.84,10.84,0,0,1,.35,2.12C578.67,460.35,578.55,461.12,578.62,461.13Z" style="fill:#263238"></path><path d="M578.59,460.85a4,4,0,0,0-1.75-.28,7.85,7.85,0,0,0-1.92.24,3.87,3.87,0,0,0-1.11.41,1.14,1.14,0,0,0-.61,1.23,1.35,1.35,0,0,0,1,1,2.47,2.47,0,0,0,1.21,0,4.6,4.6,0,0,0,1.76-.87,4.73,4.73,0,0,0,1.26-1.24,11.44,11.44,0,0,0-1.44,1,4.87,4.87,0,0,1-1.66.72,2.15,2.15,0,0,1-1,0,.91.91,0,0,1-.66-.64.72.72,0,0,1,.41-.76,4.15,4.15,0,0,1,1-.38,9.33,9.33,0,0,1,1.82-.32C577.91,460.82,578.58,460.93,578.59,460.85Z" style="fill:#263238"></path><path d="M587.78,466.91a13.84,13.84,0,0,1,.53-2.44,13.31,13.31,0,0,1,1.33-2.12c0-.12-1.18.53-1.75,1.94A3.16,3.16,0,0,0,587.78,466.91Z" style="fill:#263238"></path><path d="M568.88,468.16a5.71,5.71,0,0,0,1,.49,22.88,22.88,0,0,0,3,.93,42.26,42.26,0,0,0,10.34,1c4.06,0,7.72-.22,10.37-.33l3.14-.17a5.7,5.7,0,0,0,1.14-.12,5.49,5.49,0,0,0-1.15-.05l-3.14,0-10.36.2a48.31,48.31,0,0,1-10.27-.84C570.42,468.74,568.91,468.07,568.88,468.16Z" style="fill:#263238"></path><path d="M568.08,468.77a21.2,21.2,0,0,0,2-.91,9.45,9.45,0,0,1,5.12-.86,8.17,8.17,0,0,1,4.43,2.64,16.55,16.55,0,0,0,1.56,1.59,8.65,8.65,0,0,0-1.32-1.81,11,11,0,0,0-1.8-1.68,6.34,6.34,0,0,0-2.8-1.18,8.88,8.88,0,0,0-5.33,1A7.22,7.22,0,0,0,568.08,468.77Z" style="fill:#263238"></path><path d="M543.59,448.81S518,465.59,517,466.28c-1.38,1,.21,6,2.6,5.15,1.13-.41,22.63-6.39,24.94-7.29s8.54-6,8.54-6Z" style="fill:#DF9205"></path><path d="M536,462.08a4.9,4.9,0,0,0-1.72-2.74,4.76,4.76,0,0,0-2.88-1.46,25,25,0,0,1,2.58,1.79A28.4,28.4,0,0,1,536,462.08Z" style="fill:#263238"></path><path d="M538.28,460a6.75,6.75,0,0,0-4-4.13c-.07.11,1.06.79,2.16,1.93S538.16,460.06,538.28,460Z" style="fill:#263238"></path><path d="M540.59,458.52a5.08,5.08,0,0,0-3.65-4.5,18.37,18.37,0,0,1,2.17,2A19.06,19.06,0,0,1,540.59,458.52Z" style="fill:#263238"></path><path d="M539.07,455.33c.06,0-.29-.72-.58-1.91a10.39,10.39,0,0,1-.3-2.13,10.73,10.73,0,0,1,0-1.26,1.29,1.29,0,0,1,.14-.54.26.26,0,0,1,.35-.08c.3.12.45.61.59,1a6.06,6.06,0,0,1,.25,1.21,8.67,8.67,0,0,1-.07,2.14c-.18,1.21-.42,2-.35,2a5.49,5.49,0,0,0,.67-1.93,8,8,0,0,0,.16-2.22,6.34,6.34,0,0,0-.24-1.32,6.93,6.93,0,0,0-.25-.67,1.23,1.23,0,0,0-.58-.62.73.73,0,0,0-.9.24,1.57,1.57,0,0,0-.21.77,9.69,9.69,0,0,0,0,1.32,9.51,9.51,0,0,0,.41,2.18A4.64,4.64,0,0,0,539.07,455.33Z" style="fill:#263238"></path><path d="M539,455.06c0,.07.64-.24,1.67-.49a9.3,9.3,0,0,1,1.84-.25,3.69,3.69,0,0,1,1.05.07.69.69,0,0,1,.61.6.91.91,0,0,1-.43.81,2.15,2.15,0,0,1-1,.32,4.93,4.93,0,0,1-1.81-.18,11,11,0,0,0-1.67-.5,4.63,4.63,0,0,0,1.58.8,4.56,4.56,0,0,0,1.94.29,2.52,2.52,0,0,0,1.16-.36,1.36,1.36,0,0,0,.63-1.22,1.14,1.14,0,0,0-1-1,4.3,4.3,0,0,0-1.17-.06,8,8,0,0,0-1.91.36A4,4,0,0,0,539,455.06Z" style="fill:#263238"></path><path d="M522.9,470.49s.43-.26.63-1a3.8,3.8,0,0,0-.48-2.78,10.53,10.53,0,0,0-.86-1.28,4.62,4.62,0,0,0-.87-.93,1.51,1.51,0,0,0-.82-.35c-.21,0-.32,0-.32.07a2.44,2.44,0,0,1,.93.52,6,6,0,0,1,.74.93c.26.39.55.8.8,1.26a3.94,3.94,0,0,1,.56,2.5A10.21,10.21,0,0,1,522.9,470.49Z" style="fill:#263238"></path><path d="M532.1,463.62a3.86,3.86,0,0,0-3.16-3.78,14,14,0,0,1,1.91,1.61A14.81,14.81,0,0,1,532.1,463.62Z" style="fill:#263238"></path><path d="M550.48,459.07a8.75,8.75,0,0,0-1.12.77,32,32,0,0,1-3.16,1.94,40.8,40.8,0,0,1-5,2.23c-1.94.73-4.12,1.41-6.42,2.08-4.61,1.32-8.78,2.54-11.79,3.44l-3.57,1.1a8.16,8.16,0,0,0-1.28.46,8.85,8.85,0,0,0,1.33-.29l3.6-1c3-.82,7.22-2,11.84-3.32,2.3-.67,4.49-1.36,6.44-2.12a38,38,0,0,0,5-2.34,25,25,0,0,0,3.11-2.07A6.47,6.47,0,0,0,550.48,459.07Z" style="fill:#263238"></path><path d="M551.43,459.42a7.06,7.06,0,0,0-2.17-.58,8.9,8.9,0,0,0-5.38.66,6.35,6.35,0,0,0-2.31,2,11,11,0,0,0-1.2,2.14,8.25,8.25,0,0,0-.71,2.13,16.62,16.62,0,0,0,1-2,8.11,8.11,0,0,1,3.42-3.86,9.39,9.39,0,0,1,5.14-.74C550.58,459.3,551.42,459.49,551.43,459.42Z" style="fill:#263238"></path><path d="M482.13,348.84l21,2,8.54,2.42a23.24,23.24,0,0,1,9.72,5.57l27.51,26.41,5-41,13.75,1.19-2.3,52.8a15.72,15.72,0,0,1-15,10.95,16.28,16.28,0,0,1-11.07-4.55l-19.59-18.42-.58,26.32,13.59,11-52.41,29.2s-2.84-11.16-1.55-36c.24-4.56-8.12-18.4-8.76-22.47-2.45-15.65-2.07-38.54-2.07-38.54Z" style="fill:#DF9205"></path><path d="M469.22,355.22s-10.63,3.95-13.2,12.27c-2.28,7.39-9.89,48.91-9.89,48.91l-7.55,44,15.81.6,18.19-74.9Z" style="fill:#DF9205"></path><path d="M468.51,403.76a3.94,3.94,0,0,0,.32-.89c.18-.58.42-1.43.7-2.48.57-2.11,1.3-5,2-8.27s1.32-6.19,1.71-8.34c.19-1.07.34-1.94.43-2.54a3.72,3.72,0,0,0,.09-.95,4.42,4.42,0,0,0-.27.92c-.15.69-.34,1.52-.57,2.51-.49,2.23-1.13,5.11-1.83,8.3l-1.9,8.29c-.22,1-.4,1.83-.56,2.52A4.21,4.21,0,0,0,468.51,403.76Z" style="fill:#263238"></path><path d="M565.25,349.34a5,5,0,0,0,.41-2.07,5.37,5.37,0,0,0,0-2.12,5,5,0,0,0-.41,2.08A5.31,5.31,0,0,0,565.25,349.34Z" style="fill:#263238"></path><path d="M561.23,349.46a5.43,5.43,0,0,0,.34-2.2,5.85,5.85,0,0,0-.11-2.23,5.46,5.46,0,0,0-.34,2.21A5.78,5.78,0,0,0,561.23,349.46Z" style="fill:#263238"></path><path d="M557.24,349.21a7.35,7.35,0,0,0,.36-2.46,6.7,6.7,0,0,0-.09-2.48,6.94,6.94,0,0,0-.36,2.46A6.7,6.7,0,0,0,557.24,349.21Z" style="fill:#263238"></path><path d="M549.51,391.52a14.81,14.81,0,0,0-.15-3.63,14.48,14.48,0,0,0-.6-3.59,14.81,14.81,0,0,0,.15,3.63A14.06,14.06,0,0,0,549.51,391.52Z" style="fill:#263238"></path><path d="M451.79,456.38a5.66,5.66,0,0,0-.61,2.2,5.92,5.92,0,0,0-.17,2.28,5.66,5.66,0,0,0,.61-2.2A5.92,5.92,0,0,0,451.79,456.38Z" style="fill:#263238"></path><path d="M446.59,456.37a5.08,5.08,0,0,0-.56,2,4.94,4.94,0,0,0-.12,2.07,4.74,4.74,0,0,0,.57-2A5.08,5.08,0,0,0,446.59,456.37Z" style="fill:#263238"></path><path d="M441.66,455.87a7.39,7.39,0,0,0-.52,2.26,7.65,7.65,0,0,0-.25,2.3,5,5,0,0,0,.7-2.22A5.28,5.28,0,0,0,441.66,455.87Z" style="fill:#263238"></path><path d="M460.69,360.34c0,.09,1.1,0,2.81.38a13.34,13.34,0,0,1,6,3,13.5,13.5,0,0,1,3.77,5.58c.59,1.65.67,2.75.75,2.74a2.16,2.16,0,0,0,0-.78,11.16,11.16,0,0,0-.44-2.06,12.77,12.77,0,0,0-3.77-5.82,12.93,12.93,0,0,0-6.27-3,11,11,0,0,0-2.1-.15A2.67,2.67,0,0,0,460.69,360.34Z" style="fill:#263238"></path><path d="M517.46,397.43c-.09,0,.41-1.3.91-3.41a29.82,29.82,0,0,0-.89-16.7c-.72-2.05-1.35-3.25-1.27-3.29s.22.27.52.8a20,20,0,0,1,1.09,2.36,26.85,26.85,0,0,1,.9,16.92,17.87,17.87,0,0,1-.84,2.46A3.59,3.59,0,0,1,517.46,397.43Z" style="fill:#263238"></path><path d="M518.8,411.94a3.63,3.63,0,0,1-.91.06c-.58,0-1.43,0-2.47-.11a42.33,42.33,0,0,1-15.65-4.48c-.93-.48-1.67-.9-2.16-1.22a3.1,3.1,0,0,1-.74-.53c0-.07,1.17.55,3.06,1.42a51.71,51.71,0,0,0,15.53,4.44A33.18,33.18,0,0,1,518.8,411.94Z" style="fill:#263238"></path><g style="opacity:0.2"><path d="M495.6,404.62c1.64,1.48,4.2,1.69,6.4,1.65s4.4-.48,6.61-.44a8.19,8.19,0,0,1,6,2.27,3,3,0,0,1,.86,1.81,1.62,1.62,0,0,1-1,1.61,2.57,2.57,0,0,1-1.26,0c-6.19-1.28-12.84-2.73-17.63-6.85"></path></g><g style="opacity:0.2"><path d="M475.35,406.58c1.63-.47,1.89-2.38,2-4.07a36.86,36.86,0,0,0-3.93-20.29c-.77,4.59-2.05,9.38-3,14.06Z"></path></g><path d="M472.5,387.44a4,4,0,0,0-1.34-.6,4.52,4.52,0,0,0-3.69,1.06c-1.34,1-2.08,3-2.49,5.26s-.66,4.88-2.35,7.11a5.51,5.51,0,0,1-3.39,2,27.38,27.38,0,0,1-3.61.26,7.78,7.78,0,0,0-5.35,2.2,8.23,8.23,0,0,0-2.12,3.38c-.28.92-.31,1.46-.37,1.45a1.28,1.28,0,0,1,0-.39,4.87,4.87,0,0,1,.18-1.11,8.15,8.15,0,0,1,4.4-5.26,8.9,8.9,0,0,1,3.23-.75,28.59,28.59,0,0,0,3.54-.28,5,5,0,0,0,3.08-1.86,9.46,9.46,0,0,0,1.56-3.38c.32-1.18.49-2.37.73-3.5.44-2.24,1.24-4.35,2.73-5.45a4.65,4.65,0,0,1,4-1,2.81,2.81,0,0,1,1,.51C472.42,387.33,472.51,387.42,472.5,387.44Z" style="fill:#fafafa"></path><path d="M531.9,368.09a6.74,6.74,0,0,1-1.31,2,9.94,9.94,0,0,1-5.77,3.09,9.44,9.44,0,0,1-4.57-.36,15,15,0,0,1-4.46-2.78,25.09,25.09,0,0,0-4.59-3.33,7.42,7.42,0,0,0-2.82-.78,8.84,8.84,0,0,0-3,.38,20.27,20.27,0,0,0-5.39,2.79,32.93,32.93,0,0,1-5,3,12.73,12.73,0,0,1-5.14,1.1,14.7,14.7,0,0,1-4.52-.75,13.63,13.63,0,0,1-5.54-3.55,11,11,0,0,1-1.1-1.41,2.51,2.51,0,0,1-.31-.54c.05,0,.49.71,1.56,1.81a13.86,13.86,0,0,0,5.5,3.34,13.08,13.08,0,0,0,9.36-.43,35.54,35.54,0,0,0,4.87-3,20.07,20.07,0,0,1,5.52-2.87,8.86,8.86,0,0,1,3.18-.39,7.84,7.84,0,0,1,3,.83,25.55,25.55,0,0,1,4.68,3.42,14.64,14.64,0,0,0,4.3,2.74,9.13,9.13,0,0,0,4.37.41,10,10,0,0,0,5.67-2.87A15.74,15.74,0,0,0,531.9,368.09Z" style="fill:#fafafa"></path><path d="M557.79,407.72a13.82,13.82,0,0,1-.41-1.84A23.53,23.53,0,0,0,556,401a11.16,11.16,0,0,0-1.89-2.92,7.34,7.34,0,0,0-3.27-2.16,13.58,13.58,0,0,0-4.39-.44,18.24,18.24,0,0,1-4.89-.35,10.78,10.78,0,0,1-4.27-2.45c-1.19-1-2.19-2.2-3.17-3.24-1.92-2.11-4-3.81-6.05-4.31a6.09,6.09,0,0,0-4.83.73,5.89,5.89,0,0,0-1.3,1.32,2.52,2.52,0,0,1,.21-.44,4.17,4.17,0,0,1,1-1,6.21,6.21,0,0,1,5-.92c2.22.49,4.35,2.24,6.31,4.34,1,1,2,2.17,3.16,3.18a10.28,10.28,0,0,0,4.07,2.34c3.14.79,6.42-.15,9.29.83a7.8,7.8,0,0,1,3.44,2.33,11.05,11.05,0,0,1,1.9,3.07,20.53,20.53,0,0,1,1.3,5c.09.6.15,1.07.18,1.39A1.52,1.52,0,0,1,557.79,407.72Z" style="fill:#fafafa"></path><path d="M518.77,392.56a1.93,1.93,0,0,1-.51.08,6.53,6.53,0,0,1-1.48-.05,18.66,18.66,0,0,1-5.12-1.85,21.38,21.38,0,0,0-3.45-1.34,9.19,9.19,0,0,0-4.16-.14c-2.93.57-5.78,2.45-8.28,4.82s-4.69,5-7.12,6.83a15.92,15.92,0,0,1-7.36,3.3,15.12,15.12,0,0,1-5.44-.08,11.11,11.11,0,0,1-1.44-.37,2,2,0,0,1-.48-.19c0-.05.7.17,1.95.36a15.91,15.91,0,0,0,12.47-3.4c2.37-1.85,4.52-4.4,7.06-6.83s5.48-4.34,8.55-4.91a9.61,9.61,0,0,1,4.36.19,20.72,20.72,0,0,1,3.5,1.43,20.32,20.32,0,0,0,5,2A19.34,19.34,0,0,0,518.77,392.56Z" style="fill:#fafafa"></path><path d="M509.59,410.18a6.54,6.54,0,0,0-2,.82c-1,.72-1.16,1.74-1.31,1.71s-.11-.28,0-.71a2.87,2.87,0,0,1,1-1.41,2.76,2.76,0,0,1,1.61-.59C509.35,410,509.6,410.11,509.59,410.18Z" style="fill:#fafafa"></path><path d="M518.16,406.1a6.23,6.23,0,0,1-1.28,3,6.32,6.32,0,0,1-2.3,2.35,29,29,0,0,1,1.87-2.64A31.64,31.64,0,0,1,518.16,406.1Z" style="fill:#fafafa"></path><path d="M483.22,420.23c-.05.14-1.13-.16-2.48-.16s-2.42.27-2.47.12a3.63,3.63,0,0,1,2.48-.64A3.7,3.7,0,0,1,483.22,420.23Z" style="fill:#fafafa"></path><path d="M454.52,371.69s.23.12.65.24a3,3,0,0,0,1.82-.16,5,5,0,0,0,2.1-1.75,25.3,25.3,0,0,1,2.23-2.77,11.84,11.84,0,0,1,5.67-3.11,11.08,11.08,0,0,1,1.95-.25c.47,0,.72,0,.72.07s-1,.1-2.58.54a12.58,12.58,0,0,0-5.39,3.12,26.94,26.94,0,0,0-2.22,2.71,5.3,5.3,0,0,1-2.36,1.79,3,3,0,0,1-2,0C454.66,371.92,454.5,371.7,454.52,371.69Z" style="fill:#fafafa"></path><path d="M508,352c.05,0-.31.61-1.13,1.31a9.45,9.45,0,0,1-3.72,1.93,9.31,9.31,0,0,1-4.19.14,3.69,3.69,0,0,1-1.63-.59A12.24,12.24,0,0,1,499,355a11.34,11.34,0,0,0,4-.28,11.21,11.21,0,0,0,3.62-1.71A12.25,12.25,0,0,1,508,352Z" style="fill:#fafafa"></path><path d="M463.14,426.52c0,.05-.42,0-1.15.2a7.49,7.49,0,0,0-2.8,1.36,11.54,11.54,0,0,0-3,3.54c-.9,1.53-1.64,3.35-2.59,5.2a13.93,13.93,0,0,1-3.56,4.68,6.58,6.58,0,0,1-4.54,1.54,5,5,0,0,1-3-1.12,3,3,0,0,1-.6-.65c-.11-.17-.16-.26-.14-.27s.27.33.87.77a5.14,5.14,0,0,0,2.92.91,6.37,6.37,0,0,0,4.23-1.55,14.1,14.1,0,0,0,3.4-4.55c.93-1.82,1.7-3.65,2.64-5.2a11.48,11.48,0,0,1,3.18-3.6,7,7,0,0,1,3-1.26,4.25,4.25,0,0,1,.88,0C463,426.49,463.14,426.5,463.14,426.52Z" style="fill:#fafafa"></path><g style="opacity:0.30000000000000004"><path d="M548.47,384.68a9,9,0,0,0-1.8,7.83c.11.45.31.94.75,1.07a1,1,0,0,0,1-.38,2.63,2.63,0,0,0,.42-1,16,16,0,0,0-.14-7.73"></path></g><path d="M567.2,361.57a14.56,14.56,0,0,0-2.52,3,23.78,23.78,0,0,0-1.82,3.89c-.57,1.51-1.13,3.23-1.93,5a12.72,12.72,0,0,1-3.11,4.38,8,8,0,0,1-4,1.82,5.46,5.46,0,0,1-2.94-.38,4,4,0,0,1-.69-.41c-.15-.11-.22-.18-.21-.19s.34.18,1,.41a5.62,5.62,0,0,0,2.81.2,7.74,7.74,0,0,0,3.75-1.81,12.63,12.63,0,0,0,3-4.24c.78-1.69,1.35-3.39,2-4.92a21.88,21.88,0,0,1,2-3.91,10.48,10.48,0,0,1,1.93-2.23A3.1,3.1,0,0,1,567.2,361.57Z" style="fill:#fafafa"></path><path d="M568,350.46a6.3,6.3,0,0,1-1.76,1.54,14.5,14.5,0,0,1-10.83,2.14,6.37,6.37,0,0,1-2.21-.75c0-.09.87.18,2.27.38a16.22,16.22,0,0,0,10.58-2.09C567.3,351,568,350.39,568,350.46Z" style="fill:#fafafa"></path><path d="M575.41,456S512.57,414.75,510,413.89s-8.79-4.93-15-3.22-11.79,7.3-14.58,15.44-3,26.38-3,26.38,4.93,14.37,14.58,17.37a24.23,24.23,0,0,0,2.51.63,29.68,29.68,0,0,0,30.35-13.11l1.41-2.14s41.11,15.1,41.75,14.89Z" style="fill:#263238"></path><path d="M596.84,407.89a12.26,12.26,0,0,1,7.72,11.36C604.62,435.76,571.2,454,571.2,454l-44.48-29.48V421.4S584,400.81,596.84,407.89Z" style="fill:#263238"></path><path d="M497.66,444.62l.35.16,1,.41,4,1.53,14.81,5.58c6.29,2.34,13.82,5.13,22.27,8.21s17.82,6.45,27.83,9.83l.18.06.09-.17,4.91-9.37,2.5-4.78.1-.19-.18-.11L527.6,425.35l-14.4-9.08-3.91-2.44-1-.63-.35-.2.33.24,1,.66,3.87,2.51,14.32,9.2,47.86,30.55-.08-.29-2.5,4.78L567.8,470l.27-.11c-10-3.38-19.37-6.74-27.83-9.79L517.93,452l-14.85-5.44-4-1.46-1-.37Z" style="fill:#455a64"></path><path d="M549.25,439.38a9.23,9.23,0,0,0,1.16-.79c.73-.52,1.77-1.31,3-2.29,2.55-2,6-4.76,9.74-8s7-6.21,9.34-8.43c1.17-1.11,2.1-2,2.73-2.66a7.29,7.29,0,0,0,1-1,9,9,0,0,0-1.07.9l-2.83,2.55c-2.38,2.16-5.69,5.12-9.41,8.31s-7.15,6-9.65,8.06l-3,2.4A8.58,8.58,0,0,0,549.25,439.38Z" style="fill:#455a64"></path><path d="M584.29,414.06a8.74,8.74,0,0,0-4.29.39,8.63,8.63,0,0,0-3.81,2c.07.12,1.69-.92,3.94-1.57S584.29,414.2,584.29,414.06Z" style="fill:#455a64"></path><path d="M580.45,411.46a6.78,6.78,0,0,0-4,5c.13,0,.62-1.35,1.74-2.72S580.53,411.57,580.45,411.46Z" style="fill:#455a64"></path><path d="M599.29,463.74c0-.05-.53-.16-1.15.35a4.14,4.14,0,0,0-1.28,2.58,5.07,5.07,0,0,0,.4,2.85c.32.67.66,1,.7,1s-.18-.42-.4-1.08a5.67,5.67,0,0,1-.25-2.67,4.46,4.46,0,0,1,1.05-2.41C598.83,463.83,599.3,463.81,599.29,463.74Z" style="fill:#263238"></path><path d="M470.51,316.58a6.32,6.32,0,0,0-9.2.4,10.76,10.76,0,0,0-2.12,5.58,26.88,26.88,0,0,1-1.17,5.92,6.07,6.07,0,0,1-4.2,4c-1.5.28-3.28-.18-4.43.82a2.88,2.88,0,0,0-.26,3.58,6.68,6.68,0,0,0,3.08,2.31c.47.21,1,.51,1,1,0,.67-.86.91-1.48,1.17-1.86.79-2.4,3.44-1.36,5.18a6,6,0,0,0,5.19,2.59,17.53,17.53,0,0,0,5.88-1.35,2.28,2.28,0,0,0-.06,2.9,3.14,3.14,0,0,0,2.84,1.06,5.12,5.12,0,0,0,2.76-1.43,9.93,9.93,0,0,0,2.71-5.45,32.58,32.58,0,0,0,.36-6.17,165.5,165.5,0,0,1,1.57-22" style="fill:#263238"></path><path d="M491.75,302.38a15.21,15.21,0,0,1,14.5,15.18c0,6.29-.09,13.13-.49,17.19-.93,9.44-8,11.05-8,11.05s.22,5.87.54,11.43c.3,5.3-4,10-9.72,10.42h0c-5.61.45-10.42-3.39-10.8-8.64l-1.9-40.73a15.21,15.21,0,0,1,15.89-15.9Z" style="fill:#b78876"></path><path d="M504.1,321.68A1.2,1.2,0,0,1,503,323a1.14,1.14,0,0,1-1.3-1,1.2,1.2,0,0,1,1.09-1.28A1.14,1.14,0,0,1,504.1,321.68Z" style="fill:#263238"></path><path d="M504.07,319.82c-.14.17-1.09-.45-2.38-.37s-2.19.78-2.34.63.06-.35.45-.68a3.39,3.39,0,0,1,1.87-.7,3.3,3.3,0,0,1,1.91.49C504,319.48,504.14,319.75,504.07,319.82Z" style="fill:#263238"></path><path d="M490.66,322.39a1.21,1.21,0,0,1-1.08,1.28,1.15,1.15,0,0,1-1.3-1,1.2,1.2,0,0,1,1.08-1.28A1.15,1.15,0,0,1,490.66,322.39Z" style="fill:#263238"></path><path d="M490.63,321.09c-.14.17-1.08-.45-2.37-.37s-2.2.78-2.35.63.06-.36.46-.68a3.25,3.25,0,0,1,1.86-.7,3.2,3.2,0,0,1,1.91.49C490.55,320.74,490.7,321,490.63,321.09Z" style="fill:#263238"></path><path d="M495.89,330.39a8.24,8.24,0,0,1,2.07-.51c.33-.05.63-.13.68-.36a1.75,1.75,0,0,0-.28-1l-1.12-2.45a42.91,42.91,0,0,1-2.58-6.43,44.26,44.26,0,0,1,3.09,6.21c.38.86.74,1.68,1.08,2.47a1.89,1.89,0,0,1,.25,1.28.86.86,0,0,1-.52.52,2.54,2.54,0,0,1-.55.11A9.13,9.13,0,0,1,495.89,330.39Z" style="fill:#263238"></path><path d="M497.77,345.81A25.61,25.61,0,0,1,485,343s3.49,6.72,12.89,5.5Z" style="fill:#995037"></path><path d="M486.38,317.5c.15.23,1.09-.16,2.26-.42s2.19-.32,2.23-.59-1.06-.66-2.44-.35S486.22,317.3,486.38,317.5Z" style="fill:#263238"></path><path d="M499.16,315.18c.06.26,1.12.23,2.39.25s2.33.07,2.4-.19-1-.77-2.39-.78S499.09,314.93,499.16,315.18Z" style="fill:#263238"></path><path d="M478.26,354.12c-.09-1.94,2.08-10.36,2.95-15.53s-2.52-6-3.06-9.06a10.52,10.52,0,0,1,1-5.95c4.94,1.77,6.89-1.75,9.59-3.83,2.86-2.22,3.49-4.94,4.66-8.37s2.54-5.56,6.15-5.9a10.72,10.72,0,0,1,4.8,5.51c1.1,3.21,2,15.73,2,15.73.5-6,5.37-8.52,4.05-17.36-.57-3.81-3.73-9-8.61-9.78-1.42-.23-4.1-.4-4.1-.4-2.91-2.62-4.33-2.54-7.12-3.78-6-2.67-13.26,2.1-17.25,7.33-3.08,4-4.57,9.47-5.41,14.59a42.42,42.42,0,0,0-.23,10.74c.2,2.13-.06,4.83-2.16,6.47-3,2.33-3.78,6.77-1.71,12.69s-5.56,16-5.56,16a47,47,0,0,1,6.8-4.61C468.12,357,478.26,354.12,478.26,354.12Z" style="fill:#263238"></path><path d="M494.33,333.47a1.94,1.94,0,0,0-1.78-.59,1.81,1.81,0,0,0-1.17.75,1.13,1.13,0,0,0,0,1.28,1.31,1.31,0,0,0,1.43.25,4.26,4.26,0,0,0,1.31-.92,1.13,1.13,0,0,0,.28-.34.36.36,0,0,0,0-.4" style="fill:#995037"></path><path d="M491.5,331.83c.17,0,.26,1.14,1.32,1.89s2.28.53,2.3.69-.26.25-.78.3a2.88,2.88,0,0,1-1.92-.51,2.55,2.55,0,0,1-1-1.59C491.31,332.13,491.42,331.83,491.5,331.83Z" style="fill:#263238"></path><path d="M450.71,329.19a9.48,9.48,0,0,0,.1,1.3,4.67,4.67,0,0,0,.49,1.43,3.29,3.29,0,0,0,1.4,1.36,2.74,2.74,0,0,0,2.3.11,2.92,2.92,0,0,0,1.54-2.12,11.57,11.57,0,0,0,.16-3.09c0-1.08-.1-2.21-.1-3.37a13.48,13.48,0,0,1,1.26-6.41,6.38,6.38,0,0,1,4-3.44,5.09,5.09,0,0,1,3.56.28,3.18,3.18,0,0,1,1,.8,8.38,8.38,0,0,0-1.1-.69,5.1,5.1,0,0,0-3.46-.17,6.2,6.2,0,0,0-3.79,3.36,13.41,13.41,0,0,0-1.2,6.26c0,1.16.06,2.28.1,3.37a11.85,11.85,0,0,1-.19,3.17,3.2,3.2,0,0,1-1.72,2.29,3,3,0,0,1-2.5-.15,3.43,3.43,0,0,1-1.45-1.48,4.46,4.46,0,0,1-.46-1.49A4,4,0,0,1,450.71,329.19Z" style="fill:#263238"></path><path d="M464.5,349.47A2.45,2.45,0,0,1,464,349a3.94,3.94,0,0,1-.73-1.85,5.43,5.43,0,0,1,.54-3.1,11.9,11.9,0,0,1,2.6-3.27,22.07,22.07,0,0,0,3.4-3.68A8.64,8.64,0,0,0,471,331.6a57.86,57.86,0,0,1-.48-6.39,8.41,8.41,0,0,1,.78-3.34,6,6,0,0,1,2.44-2.54c2.1-1.19,4.45-1.52,6.37-2.58a10.38,10.38,0,0,0,4.12-4.65c.92-1.81,1.58-3.65,2.43-5.26a11.36,11.36,0,0,1,3.15-4,6.15,6.15,0,0,1,3.93-1.34,4.89,4.89,0,0,1,2.91,1.17,3.65,3.65,0,0,1,1.12,1.64,1.84,1.84,0,0,1,.12.5c0,.12,0,.18,0,.18s0-.24-.2-.66a3.65,3.65,0,0,0-1.14-1.57,4.84,4.84,0,0,0-2.84-1.09,6,6,0,0,0-3.78,1.35,11.06,11.06,0,0,0-3.06,3.9c-.83,1.6-1.48,3.43-2.41,5.27a10.64,10.64,0,0,1-4.23,4.79c-2,1.1-4.33,1.42-6.35,2.58a5.61,5.61,0,0,0-2.32,2.41,8.34,8.34,0,0,0-.76,3.21,58.85,58.85,0,0,0,.47,6.36,8.91,8.91,0,0,1-1.22,5.64,22.21,22.21,0,0,1-3.47,3.7,11.88,11.88,0,0,0-2.59,3.19,5.41,5.41,0,0,0-.58,3A3.87,3.87,0,0,0,464.5,349.47Z" style="fill:#455a64"></path><path d="M467,321.09a4.8,4.8,0,0,1,1.19-5.68,21.79,21.79,0,0,0-1,2.75A20,20,0,0,0,467,321.09Z" style="fill:#fafafa"></path><path d="M470.25,349.94a22.31,22.31,0,0,0,2.92,14.46,11.36,11.36,0,0,0,3.57,3.94,5.9,5.9,0,0,0,5.13.73,4,4,0,0,0,2.65-4.19c-.4-2.5-3.48-4.07-3.5-6.61,1.12.68,2.64,1.33,3.62.46a2.22,2.22,0,0,0,.37-2.46,9.53,9.53,0,0,0-1.52-2.17,13.6,13.6,0,0,1-2.72-10.35c.15-1,.42-4.14.44-5.16s-.28,0-1-.67a3.17,3.17,0,0,0-2.86-.53,6.08,6.08,0,0,0-2.53,1.59,11.71,11.71,0,0,0-3.48,8.88" style="fill:#263238"></path></g><g id="freepik--Plant--inject-8"><path d="M200.67,291.12a.59.59,0,0,0-.09-.21c-.09-.16-.2-.35-.32-.59-.29-.51-.75-1.26-1.39-2.17a23.51,23.51,0,0,0-6.88-6.5,17,17,0,0,0-6.16-2.26,15.17,15.17,0,0,0-7.49.79,12.08,12.08,0,0,0-6.41,5.24c-1.47,2.57-2,5.59-2.81,8.48a15.49,15.49,0,0,1-1.79,4,12.2,12.2,0,0,1-3,3c-1.15.84-2.35,1.61-3.43,2.49a14.71,14.71,0,0,0-2.79,3,18.56,18.56,0,0,0-2.86,7,24.86,24.86,0,0,0-.38,6.56,49.46,49.46,0,0,0,1.68,9.32c.28,1.08.52,1.92.69,2.48a4.48,4.48,0,0,0,.28.85s0-.3-.18-.88-.35-1.45-.6-2.5a54.5,54.5,0,0,1-1.5-9.3,24.92,24.92,0,0,1,.43-6.44,18.46,18.46,0,0,1,2.83-6.79,14.31,14.31,0,0,1,2.71-2.91c1.06-.86,2.25-1.61,3.42-2.47a12.86,12.86,0,0,0,3.17-3.12,16,16,0,0,0,1.86-4.18c.87-2.94,1.34-5.91,2.75-8.37a11.74,11.74,0,0,1,6.14-5.06,14.94,14.94,0,0,1,7.26-.8,16.54,16.54,0,0,1,6,2.15,23.9,23.9,0,0,1,6.89,6.3c.67.89,1.15,1.61,1.47,2.1A5,5,0,0,0,200.67,291.12Z" style="fill:#e0e0e0"></path><path d="M162.94,301.7c.8-.74,1.18-.23,2.25,0a6.54,6.54,0,0,1,2.88,1.44A12.14,12.14,0,0,1,172,315.86a9.49,9.49,0,0,1-8.71-14.24" style="fill:#e0e0e0"></path><path d="M195.58,286.84c.4-1,1-.71,2-1a6.55,6.55,0,0,1,3.23.06,12.13,12.13,0,0,1,9,9.81,9.48,9.48,0,0,1-14-9.11" style="fill:#e0e0e0"></path><path d="M155.75,321.8a11,11,0,0,1,17.21.84,13.54,13.54,0,0,1-8.93,3.52,13.82,13.82,0,0,1-9-3.63" style="fill:#e0e0e0"></path><path d="M158.43,306.79a11.09,11.09,0,0,1-11.2-13.23,10,10,0,0,1,11.57,13.12" style="fill:#e0e0e0"></path><path d="M169.92,289.14a11.09,11.09,0,0,1-15-8.76,10,10,0,0,1,15.27,8.53" style="fill:#e0e0e0"></path><path d="M173.77,283.38a11.08,11.08,0,0,1,15,8.76,10,10,0,0,1-15.27-8.54" style="fill:#e0e0e0"></path><path d="M178.36,280.27a11.08,11.08,0,0,1-5.9-16.3,10,10,0,0,1,6.28,16.33" style="fill:#e0e0e0"></path><path d="M190.12,280.84a11.09,11.09,0,0,1,9.06-14.79,10,10,0,0,1-8.84,15.1" style="fill:#e0e0e0"></path><polyline points="142.7 360.35 136.44 321.01 184.46 321.6 179.73 359.84" style="fill:#263238"></polyline><path d="M163.43,313.83a8.17,8.17,0,0,0,8,.67,8.63,8.63,0,0,0,4.36-6.89,9.8,9.8,0,0,0-8-.4,9.65,9.65,0,0,0-5.29,5.92" style="fill:#DF9205"></path><path d="M185.38,322.3a8.17,8.17,0,0,0,8,.67,8.61,8.61,0,0,0,4.36-6.89,9.78,9.78,0,0,0-8-.4,9.67,9.67,0,0,0-5.3,5.92" style="fill:#DF9205"></path><path d="M173.06,303.38a8.19,8.19,0,0,0,6.28,4.95,8.65,8.65,0,0,0,7.44-3.36,9.23,9.23,0,0,0-14.1-2.68" style="fill:#DF9205"></path><path d="M181.07,313.18a8.22,8.22,0,0,0-7.17,3.55,8.61,8.61,0,0,0-.16,8.15,9.21,9.21,0,0,0,8.48-11.57" style="fill:#DF9205"></path><path d="M188.81,328.67a8.17,8.17,0,0,0,.19,8,8.6,8.6,0,0,0,7.32,3.59,9.76,9.76,0,0,0-.46-7.95c-1.26-2.3-3.53-3.43-6.38-4.08" style="fill:#DF9205"></path><path d="M201.57,330.49a5.53,5.53,0,0,0-1.9-1.21,8.3,8.3,0,0,0-2.6-.46,31.69,31.69,0,0,0-3.55.21,10.26,10.26,0,0,1-4.36-.38,6.65,6.65,0,0,1-3.6-3.48,19.56,19.56,0,0,1-1.55-5.31,15.52,15.52,0,0,0-1.85-5.45,19.45,19.45,0,0,0-4.07-4.13,19.8,19.8,0,0,1-3.88-3.94,13.05,13.05,0,0,1-1.94-9,12.63,12.63,0,0,1,2.36-5.81,9.35,9.35,0,0,1,1.15-1.27,2.84,2.84,0,0,1,.46-.39,2.54,2.54,0,0,1-.38.46,12.13,12.13,0,0,0-1.06,1.32,13.17,13.17,0,0,0-.2,14.46,19.73,19.73,0,0,0,3.82,3.82,19.31,19.31,0,0,1,4.17,4.24,15.51,15.51,0,0,1,1.92,5.63A19.42,19.42,0,0,0,186,325a6.27,6.27,0,0,0,3.32,3.29,10.18,10.18,0,0,0,4.19.41,30.32,30.32,0,0,1,3.58-.13,8,8,0,0,1,2.67.56,4.4,4.4,0,0,1,1.44.93,2.4,2.4,0,0,1,.3.34C201.55,330.44,201.58,330.48,201.57,330.49Z" style="fill:#DF9205"></path><path d="M201.57,330.49a5.53,5.53,0,0,0-1.9-1.21,8.3,8.3,0,0,0-2.6-.46,31.69,31.69,0,0,0-3.55.21,10.26,10.26,0,0,1-4.36-.38,6.65,6.65,0,0,1-3.6-3.48,19.56,19.56,0,0,1-1.55-5.31,15.52,15.52,0,0,0-1.85-5.45,19.45,19.45,0,0,0-4.07-4.13,19.8,19.8,0,0,1-3.88-3.94,13.05,13.05,0,0,1-1.94-9,12.63,12.63,0,0,1,2.36-5.81,9.35,9.35,0,0,1,1.15-1.27,2.84,2.84,0,0,1,.46-.39,2.54,2.54,0,0,1-.38.46,12.13,12.13,0,0,0-1.06,1.32,13.17,13.17,0,0,0-.2,14.46,19.73,19.73,0,0,0,3.82,3.82,19.31,19.31,0,0,1,4.17,4.24,15.51,15.51,0,0,1,1.92,5.63A19.42,19.42,0,0,0,186,325a6.27,6.27,0,0,0,3.32,3.29,10.18,10.18,0,0,0,4.19.41,30.32,30.32,0,0,1,3.58-.13,8,8,0,0,1,2.67.56,4.4,4.4,0,0,1,1.44.93,2.4,2.4,0,0,1,.3.34C201.55,330.44,201.58,330.48,201.57,330.49Z" style="fill:#DF9205"></path><path d="M109.89,334.52a12.15,12.15,0,0,0-16.44-12,20.26,20.26,0,0,0,16,11.82" style="fill:#DF9205"></path><path d="M106.72,336.19c-2.35,2.58-2.2,6.73-.52,9.79s4.57,5.23,7.47,7.17a15.77,15.77,0,0,0-6.79-17.9" style="fill:#DF9205"></path><path d="M118.1,324.1A14,14,0,0,0,134,336.59c-.91-3.78-2.42-7.58-5.34-10.14s-7.52-3.52-10.74-1.36" style="fill:#DF9205"></path><path d="M118,320.25c-.59-3.44-4-5.93-7.45-6.26s-6.9,1.16-9.68,3.26a12.6,12.6,0,0,0,17.17,1.7" style="fill:#DF9205"></path><path d="M100.13,349.48c-3.3,2.81-4.12,7.83-2.75,11.94s4.58,7.39,8.18,9.8c1.39-4.08,2.26-8.45,1.53-12.7s-3.29-8.34-7.23-10.07" style="fill:#DF9205"></path><path d="M117.49,310.61a10.13,10.13,0,0,1,16-.94,8.75,8.75,0,0,1-15.8.4" style="fill:#DF9205"></path><path d="M121.53,300.7a13.18,13.18,0,0,1-16.8-10.3,29.65,29.65,0,0,1,7.93.11,12.91,12.91,0,0,1,7,3.46,7,7,0,0,1,1.84,6.73" style="fill:#DF9205"></path><path d="M129.15,298.13a10.78,10.78,0,0,1-.07-16.62,22.62,22.62,0,0,1,4.71,10.05,8.45,8.45,0,0,1,0,4.15,3.82,3.82,0,0,1-2.9,2.72" style="fill:#DF9205"></path><g style="opacity:0.4"><path d="M109.89,334.52a12.15,12.15,0,0,0-16.44-12,20.26,20.26,0,0,0,16,11.82"></path></g><g style="opacity:0.4"><path d="M106.72,336.19c-2.35,2.58-2.2,6.73-.52,9.79s4.57,5.23,7.47,7.17a15.77,15.77,0,0,0-6.79-17.9"></path></g><g style="opacity:0.4"><path d="M118.1,324.1A14,14,0,0,0,134,336.59c-.91-3.78-2.42-7.58-5.34-10.14s-7.52-3.52-10.74-1.36"></path></g><g style="opacity:0.4"><path d="M118,320.25c-.59-3.44-4-5.93-7.45-6.26s-6.9,1.16-9.68,3.26a12.6,12.6,0,0,0,17.17,1.7"></path></g><g style="opacity:0.4"><path d="M100.13,349.48c-3.3,2.81-4.12,7.83-2.75,11.94s4.58,7.39,8.18,9.8c1.39-4.08,2.26-8.45,1.53-12.7s-3.29-8.34-7.23-10.07"></path></g><g style="opacity:0.4"><path d="M117.49,310.61a10.13,10.13,0,0,1,16-.94,8.75,8.75,0,0,1-15.8.4"></path></g><g style="opacity:0.4"><path d="M121.53,300.7a13.18,13.18,0,0,1-16.8-10.3,29.65,29.65,0,0,1,7.93.11,12.91,12.91,0,0,1,7,3.46,7,7,0,0,1,1.84,6.73"></path></g><g style="opacity:0.4"><path d="M129.15,298.13a10.78,10.78,0,0,1-.07-16.62,22.62,22.62,0,0,1,4.71,10.05,8.45,8.45,0,0,1,0,4.15,3.82,3.82,0,0,1-2.9,2.72"></path></g><path d="M142.32,322.28a.92.92,0,0,1,0-.27c0-.21,0-.47.05-.79,0-.7.11-1.72.13-3a27.21,27.21,0,0,0-1.78-10.91,16.67,16.67,0,0,0-4.39-6.18,11.74,11.74,0,0,0-8-2.94,10,10,0,0,0-4.5,1.13,8.87,8.87,0,0,0-3.48,3.32c-1.74,2.88-2.18,6.48-2,10s.63,7.12.24,10.56a16.46,16.46,0,0,1-1.32,4.89,10.23,10.23,0,0,1-3,3.87,15,15,0,0,1-4.12,2.11,21.18,21.18,0,0,0-3.88,1.76,14,14,0,0,0-5.09,5.55,13.46,13.46,0,0,0-1.47,6.07,14.34,14.34,0,0,0,.77,4.69,17,17,0,0,0,1.82,3.65s-.07-.06-.18-.2a7,7,0,0,1-.46-.65,12.35,12.35,0,0,1-1.37-2.73,14,14,0,0,1-.87-4.76,13.62,13.62,0,0,1,1.43-6.24,14.43,14.43,0,0,1,5.19-5.75c2.38-1.58,5.51-2,7.93-3.87s3.69-5.15,4.06-8.45-.12-6.86-.25-10.48.27-7.32,2.1-10.32a9.39,9.39,0,0,1,3.69-3.5,10.46,10.46,0,0,1,4.72-1.17,12.14,12.14,0,0,1,8.28,3.09,17,17,0,0,1,4.45,6.36,22.94,22.94,0,0,1,1.51,6.23,34.39,34.39,0,0,1,.13,4.83c0,1.33-.15,2.35-.23,3.05,0,.32-.07.58-.1.78A.84.84,0,0,1,142.32,322.28Z" style="fill:#DF9205"></path><g style="opacity:0.4"><path d="M142.32,322.28a.92.92,0,0,1,0-.27c0-.21,0-.47.05-.79,0-.7.11-1.72.13-3a27.21,27.21,0,0,0-1.78-10.91,16.67,16.67,0,0,0-4.39-6.18,11.74,11.74,0,0,0-8-2.94,10,10,0,0,0-4.5,1.13,8.87,8.87,0,0,0-3.48,3.32c-1.74,2.88-2.18,6.48-2,10s.63,7.12.24,10.56a16.46,16.46,0,0,1-1.32,4.89,10.23,10.23,0,0,1-3,3.87,15,15,0,0,1-4.12,2.11,21.18,21.18,0,0,0-3.88,1.76,14,14,0,0,0-5.09,5.55,13.46,13.46,0,0,0-1.47,6.07,14.34,14.34,0,0,0,.77,4.69,17,17,0,0,0,1.82,3.65s-.07-.06-.18-.2a7,7,0,0,1-.46-.65,12.35,12.35,0,0,1-1.37-2.73,14,14,0,0,1-.87-4.76,13.62,13.62,0,0,1,1.43-6.24,14.43,14.43,0,0,1,5.19-5.75c2.38-1.58,5.51-2,7.93-3.87s3.69-5.15,4.06-8.45-.12-6.86-.25-10.48.27-7.32,2.1-10.32a9.39,9.39,0,0,1,3.69-3.5,10.46,10.46,0,0,1,4.72-1.17,12.14,12.14,0,0,1,8.28,3.09,17,17,0,0,1,4.45,6.36,22.94,22.94,0,0,1,1.51,6.23,34.39,34.39,0,0,1,.13,4.83c0,1.33-.15,2.35-.23,3.05,0,.32-.07.58-.1.78A.84.84,0,0,1,142.32,322.28Z"></path></g><path d="M212.25,313.7a10.28,10.28,0,0,0,.72-3.52,8.74,8.74,0,0,0-.94-4.07,8.49,8.49,0,0,0-3.91-3.78,8.72,8.72,0,0,0-3.09-.83,10.11,10.11,0,0,0-3.45.4c-2.35.62-4.68,2-7.47,2.51a8.8,8.8,0,0,1-4.32-.1,6.55,6.55,0,0,1-3.53-2.82c-1.68-2.6-2.15-5.87-4.18-8.26a8.14,8.14,0,0,0-3.79-2.48,10.63,10.63,0,0,0-4.43-.45,11.31,11.31,0,0,0-7.37,3.83,17.18,17.18,0,0,0-3.66,6.77,20.38,20.38,0,0,0-.82,6.71,72.21,72.21,0,0,0,1.25,9.81l.45,2.66c0,.28.08.51.11.69a2.18,2.18,0,0,1,0,.24s0-.07-.07-.23l-.16-.68c-.13-.65-.32-1.53-.55-2.64a65.94,65.94,0,0,1-1.42-9.84,20.55,20.55,0,0,1,.77-6.84,17.62,17.62,0,0,1,3.72-7,13.35,13.35,0,0,1,3.37-2.7,11.65,11.65,0,0,1,8.95-.86,8.72,8.72,0,0,1,4,2.64c2.14,2.57,2.6,5.85,4.21,8.32a6,6,0,0,0,3.25,2.62,8.3,8.3,0,0,0,4.08.11c2.68-.51,5-1.83,7.45-2.45a10.32,10.32,0,0,1,3.59-.39,8.89,8.89,0,0,1,3.22.9,8.66,8.66,0,0,1,4.89,8.18,8.19,8.19,0,0,1-.52,2.66A4.24,4.24,0,0,1,212.25,313.7Z" style="fill:#DF9205"></path><path d="M184.16,296.27a9.35,9.35,0,0,0,8.57.56,8.65,8.65,0,0,0,4.36-6.89,9.84,9.84,0,0,0-8-.41,9.7,9.7,0,0,0-5.29,5.92" style="fill:#DF9205"></path><path d="M193.27,304.53a9.3,9.3,0,0,0,4,7.6,8.63,8.63,0,0,0,8.16.14,9.82,9.82,0,0,0-3.8-7,9.68,9.68,0,0,0-7.81-1.43" style="fill:#DF9205"></path><path d="M209.06,302.7a9.36,9.36,0,0,0,8.58-.36,8.63,8.63,0,0,0,3.6-7.31,9.21,9.21,0,0,0-12.59,6.89" style="fill:#DF9205"></path><path d="M170.9,290.8c-2.3-2-3.85-5.47-3.41-8.08a8.64,8.64,0,0,1,5.3-6.21,9.83,9.83,0,0,1,2.74,7.48,9.72,9.72,0,0,1-4.09,6.81" style="fill:#DF9205"></path><path d="M109.23,279.49a.59.59,0,0,1,.09-.21l.32-.59c.29-.51.74-1.25,1.39-2.17a23.32,23.32,0,0,1,6.87-6.5,17.08,17.08,0,0,1,6.17-2.26,15.17,15.17,0,0,1,7.49.79,12.2,12.2,0,0,1,6.41,5.24c1.47,2.57,1.94,5.59,2.8,8.48a15.49,15.49,0,0,0,1.79,4,12.24,12.24,0,0,0,3.05,3c1.14.84,2.34,1.61,3.43,2.49a15,15,0,0,1,2.79,3,18.6,18.6,0,0,1,2.85,7,24.45,24.45,0,0,1,.38,6.56,49.59,49.59,0,0,1-1.67,9.32c-.29,1.08-.53,1.92-.69,2.48a5.64,5.64,0,0,1-.28.85,5,5,0,0,1,.18-.88c.14-.61.34-1.45.59-2.5a54.16,54.16,0,0,0,1.51-9.3,24.51,24.51,0,0,0-.44-6.44,18.13,18.13,0,0,0-2.83-6.79,14.26,14.26,0,0,0-2.7-2.91c-1.06-.86-2.26-1.61-3.42-2.47a12.89,12.89,0,0,1-3.18-3.12,15.67,15.67,0,0,1-1.85-4.18c-.87-2.94-1.35-5.91-2.76-8.37a11.72,11.72,0,0,0-6.13-5.06,15,15,0,0,0-7.26-.8,16.41,16.41,0,0,0-6,2.15,24,24,0,0,0-6.9,6.3c-.67.89-1.14,1.61-1.46,2.11A8.72,8.72,0,0,1,109.23,279.49Z" style="fill:#DF9205"></path><path d="M147,290.07c-.79-.74-1.18-.22-2.25,0a6.59,6.59,0,0,0-2.88,1.44,12.16,12.16,0,0,0-3.94,12.75A9.48,9.48,0,0,0,146.59,290" style="fill:#DF9205"></path><path d="M114.32,275.21c-.4-1-1-.71-2-1a6.63,6.63,0,0,0-3.22.06,12.16,12.16,0,0,0-9,9.81A9.49,9.49,0,0,0,114,275" style="fill:#DF9205"></path><path d="M154.14,310.17a11,11,0,0,0-17.2.84,13.52,13.52,0,0,0,8.92,3.52,13.84,13.84,0,0,0,9-3.63" style="fill:#DF9205"></path><path d="M151.46,295.16a11.08,11.08,0,0,0,11.2-13.23,10,10,0,0,0-11.57,13.12" style="fill:#DF9205"></path><path d="M140,277.51a11.1,11.1,0,0,0,15-8.76,9.95,9.95,0,0,0-15.27,8.53" style="fill:#DF9205"></path><path d="M136.12,271.75a11.1,11.1,0,0,0-15,8.76A10,10,0,0,0,136.44,272" style="fill:#DF9205"></path><path d="M131.54,268.64a11.09,11.09,0,0,0,5.9-16.3,10,10,0,0,0-6.29,16.33" style="fill:#DF9205"></path><path d="M119.77,269.21a11.09,11.09,0,0,0-9-14.79,9.95,9.95,0,0,0,8.83,15.1" style="fill:#DF9205"></path><polygon points="135.82 355.79 139.5 360.35 184.7 360.35 187.78 355.79 135.82 355.79" style="fill:#263238"></polygon><path d="M186.78,355.75c0,.14-11.1.26-24.8.26s-24.81-.12-24.81-.26,11.11-.26,24.81-.26S186.78,355.61,186.78,355.75Z" style="fill:#455a64"></path><path d="M181.7,338.59s-.08.14-.28.37a10.16,10.16,0,0,1-.92,1,16.83,16.83,0,0,1-4,2.8,17.74,17.74,0,0,1-7.05,1.81,17.44,17.44,0,0,1-4.32-.36,25.78,25.78,0,0,1-4.4-1.46c-2.91-1.24-5.56-2.65-8.14-3.48a14.12,14.12,0,0,0-7-.67,9,9,0,0,0-4.31,2c-.86.75-1.19,1.31-1.24,1.28a2.19,2.19,0,0,1,.23-.41,6.78,6.78,0,0,1,.87-1,8.93,8.93,0,0,1,4.37-2.21,14.08,14.08,0,0,1,7.26.58c2.64.81,5.31,2.22,8.19,3.45a25.66,25.66,0,0,0,4.31,1.44,16.9,16.9,0,0,0,4.19.38,17.82,17.82,0,0,0,6.91-1.66A21.43,21.43,0,0,0,181.7,338.59Z" style="fill:#455a64"></path><path d="M182.15,335.06a1.68,1.68,0,0,1-.31.35,10.18,10.18,0,0,1-1,.9,18.79,18.79,0,0,1-4.18,2.6,19.56,19.56,0,0,1-7.1,1.69,18.89,18.89,0,0,1-4.33-.29,27.71,27.71,0,0,1-4.47-1.26c-3-1.08-5.72-2.33-8.34-3.06a16.62,16.62,0,0,0-7.09-.64,10.53,10.53,0,0,0-4.47,1.71c-.94.66-1.35,1.16-1.39,1.12s.08-.14.28-.37a7.34,7.34,0,0,1,1-.91,10.13,10.13,0,0,1,4.53-1.91,16.38,16.38,0,0,1,7.28.54c2.67.72,5.43,2,8.38,3a29.08,29.08,0,0,0,4.39,1.25,19.21,19.21,0,0,0,4.22.32,19.79,19.79,0,0,0,7-1.56A24,24,0,0,0,182.15,335.06Z" style="fill:#455a64"></path></g><g id="freepik--Boxes--inject-8"><rect x="76.9" y="402.38" width="96.13" height="64.34" style="fill:#DF9205"></rect><g style="opacity:0.4"><rect x="76.9" y="402.38" width="96.13" height="64.34"></rect></g><rect x="153.53" y="402.47" width="7.63" height="13.05" style="fill:#DF9205"></rect><rect x="152.69" y="453.68" width="7.63" height="13.05" style="fill:#DF9205"></rect><path d="M104.41,466.59c-.14,0-.26-14.42-.26-32.21s.12-32.21.26-32.21.26,14.42.26,32.21S104.56,466.59,104.41,466.59Z" style="fill:#263238"></path><path d="M138.49,437.42c0,.15-13.85.26-30.94.26s-30.95-.11-30.95-.26,13.85-.26,31-.26S138.49,437.28,138.49,437.42Z" style="fill:#263238"></path><path d="M105.94,402.23a17.32,17.32,0,0,1,2.23-1.66,25,25,0,0,1,12.78-4,4.7,4.7,0,0,1,1.61.13,1.47,1.47,0,0,1,1.06,1.34,2.13,2.13,0,0,1-.68,1.64,4.39,4.39,0,0,1-1.56.91,30.42,30.42,0,0,1-15.83,1.54l-.2,0,0-.2a38.35,38.35,0,0,1,2.31-10,35.37,35.37,0,0,1,2.32-5,6.56,6.56,0,0,1,1.9-2.17,3.54,3.54,0,0,1,2.92-.55,3.06,3.06,0,0,1,2,2.26,5,5,0,0,1-.31,3,26,26,0,0,1-3.15,5.15,33.67,33.67,0,0,1-9.23,8.32l-.1.06-.1,0-1.1-.28-1.12-.38a19.41,19.41,0,0,1-8.06-5.68A18.46,18.46,0,0,1,91,392.56a4.59,4.59,0,0,1-.62-2.4,1.31,1.31,0,0,1,.8-1.11,1.86,1.86,0,0,1,1.32.06,19.46,19.46,0,0,1,11.1,13.3l-.45.14a52.27,52.27,0,0,1-3.83-19.78,5.94,5.94,0,0,1,.4-2.25,2.38,2.38,0,0,1,.69-.95,1.79,1.79,0,0,1,1.11-.37,2.23,2.23,0,0,1,1.81,1.18,6.39,6.39,0,0,1,.77,1.91,57.37,57.37,0,0,1,.95,7.18,55.53,55.53,0,0,1-.25,10.18c-.14,1.18-.28,2.07-.39,2.67-.05.29-.1.51-.13.69s0,.23-.06.22a2,2,0,0,1,0-.23q0-.25.09-.69c.09-.6.2-1.5.32-2.67a59.7,59.7,0,0,0,.12-10.15,56.69,56.69,0,0,0-1-7.12,5.76,5.76,0,0,0-.74-1.8,1.89,1.89,0,0,0-1.51-1,1.61,1.61,0,0,0-1.45,1.11,5.45,5.45,0,0,0-.36,2.11,52.21,52.21,0,0,0,3.88,19.59l-.45.14a19,19,0,0,0-10.81-12.92,1.41,1.41,0,0,0-1-.07.82.82,0,0,0-.49.71,4.08,4.08,0,0,0,.59,2.11,17.73,17.73,0,0,0,2.54,4,19,19,0,0,0,7.85,5.53l1.09.37,1.07.27-.19,0a33.4,33.4,0,0,0,9.09-8.19,25.89,25.89,0,0,0,3.09-5,4.4,4.4,0,0,0,.29-2.71,2.55,2.55,0,0,0-1.64-1.91,3.09,3.09,0,0,0-2.51.47,6.17,6.17,0,0,0-1.75,2,36.23,36.23,0,0,0-2.3,4.9A38.19,38.19,0,0,0,105.8,402l-.17-.23a30.24,30.24,0,0,0,15.62-1.43,4.3,4.3,0,0,0,1.45-.83,1.78,1.78,0,0,0,.59-1.38,1.15,1.15,0,0,0-.83-1.06,4.4,4.4,0,0,0-1.5-.12,24.81,24.81,0,0,0-5.54.75,25.17,25.17,0,0,0-7.18,3c-.78.47-1.34.87-1.72,1.14S105.94,402.23,105.94,402.23Z" style="fill:#263238"></path><rect x="138.3" y="360.64" width="158.6" height="106.15" style="fill:#DF9205"></rect><g style="opacity:0.2"><rect x="241.76" y="360.64" width="55.14" height="106.15"></rect></g><rect x="264.73" y="360.78" width="12.59" height="21.53" style="fill:#DF9205"></rect><rect x="263.35" y="445.27" width="12.59" height="21.53" style="fill:#DF9205"></rect><path d="M183.69,466.57c-.14,0-.26-23.79-.26-53.14s.12-53.14.26-53.14.26,23.79.26,53.14S183.84,466.57,183.69,466.57Z" style="fill:#263238"></path></g></svg>